<svg fill="none" viewBox="0 0 78 78"><defs/><g fill="#242424"><path d="M9.1 78h39c5 0 9-4 9.1-9.1v-52c0-5-4-9.1-9.1-9.1h-5.4c-.6-1.6-2-2.6-3.7-2.6h-1.3V3.9C37.7 1.7 36 0 33.8 0H23.4a3.9 3.9 0 00-3.9 3.9v1.3h-1.3c-1.6 0-3.1 1-3.7 2.6H9.1c-5 0-9 4-9.1 9.1v52c0 5 4 9 9.1 9zm11.7-59.8h15.6c2 0 4-1 5.2-2.6H48c.7 0 1.3.6 1.3 1.3v52c0 .7-.6 1.3-1.3 1.3h-39c-.7 0-1.3-.6-1.3-1.3v-52c0-.7.6-1.3 1.3-1.3h6.5a6.5 6.5 0 005.2 2.6zm1.3-14.3c0-.7.6-1.3 1.3-1.3h10.4c.7 0 1.3.6 1.3 1.3v1.3h-13V3.9zm-5.2 5.2c0-.7.6-1.3 1.3-1.3H39c.7 0 1.3.6 1.3 1.3v2.6c0 2.2-1.7 3.9-3.9 3.9H20.8a3.9 3.9 0 01-3.9-3.9V9.1zM2.6 16.9c0-3.6 3-6.5 6.5-6.5h5.2v1.3l.1 1.3H9.1a3.9 3.9 0 00-3.9 3.9v52c0 2.1 1.8 3.9 3.9 3.9h39c2.2 0 3.9-1.8 3.9-4V17c0-2.2-1.7-3.9-3.9-3.9h-5.3l.1-1.3v-1.3h5.2c3.6 0 6.5 3 6.5 6.5v52c0 3.6-3 6.5-6.5 6.5h-39c-3.6 0-6.5-3-6.5-6.5v-52z"/><path fill-rule="evenodd" d="M26 11.7h5.2a1.3 1.3 0 000-2.6H26a1.3 1.3 0 100 2.6z" clip-rule="evenodd"/><path d="M72.8 0h-2.6A5.2 5.2 0 0065 5.2v2l-3.6 2.7a4 4 0 00-1.6 3.1v26a1.3 1.3 0 102.6 0V13c0-.4.2-.8.5-1l2.1-1.6v22.1c0 .7.6 1.3 1.3 1.3v34.6c0 .5 0 1 .3 1.4l2.5 6.5a2.6 2.6 0 004.8 0l2.5-6.5c.2-.4.3-.9.3-1.4V33.8c.7 0 1.3-.6 1.3-1.3V5.2C78 2.3 75.7 0 72.8 0zm-5.2 5.2c0-1.4 1.2-2.6 2.6-2.6h2.6c1.4 0 2.6 1.2 2.6 2.6v26h-7.8v-26zm3.9 70.2l-2-5.2h4l-2 5.2zm2.6-7.8h-5.2V33.8h5.2v33.8z"/><path fill-rule="evenodd" d="M14.3 31.2h15.6a1.3 1.3 0 000-2.6H14.3a1.3 1.3 0 100 2.6zM36.8 32.1c.5.5 1.3.5 1.8 0l5.2-5.2a1.3 1.3 0 00-1.8-1.8l-4.3 4.3-1.7-1.7a1.3 1.3 0 00-1.8 1.8l2.6 2.6zM14.3 44.2h15.6a1.3 1.3 0 000-2.6H14.3a1.3 1.3 0 100 2.6zM14.3 57.2h15.6a1.3 1.3 0 000-2.6H14.3a1.3 1.3 0 100 2.6zM36.8 45.1c.5.5 1.3.5 1.8 0l5.2-5.2a1.3 1.3 0 00-1.8-1.8l-4.3 4.3-1.7-1.7a1.3 1.3 0 00-1.8 1.8l2.6 2.6z" clip-rule="evenodd"/><path d="M36.4 61h5.2c1.4 0 2.6-1 2.6-2.5v-5.2c0-1.4-1.2-2.6-2.6-2.6h-5.2a2.6 2.6 0 00-2.6 2.6v5.2c0 1.4 1.2 2.6 2.6 2.6zm0-7.7h5.2v5.2h-5.2v-5.2z"/></g><defs><clipPath id="clip0"><rect width="78" height="78" fill="#fff"/></clipPath></defs></svg>
