<svg fill="none" viewBox="0 0 80 80"><defs/><path fill="#242424" d="M78.7 2.7a1.3 1.3 0 100-2.7H44.2c-1.3 0-2.6.5-3.6 1.4L2.2 36A6.7 6.7 0 000 41v4.2a1.3 1.3 0 102.7 0V41A4 4 0 014 38l5.3-4.8V64h-8a1.3 1.3 0 100 2.7h1.4v10.6c0 1.5 1.2 2.7 2.6 2.7h72c1.5 0 2.7-1.2 2.7-2.7V26.7c0-1.5-1.2-2.7-2.7-2.7h-8V2.7h9.4zm-34.5 0h9.1V24h-8a1.3 1.3 0 000 2.7h1.4V36c0 .7-.6 1.3-1.4 1.3h-4v-33l1.1-1c.5-.4 1.1-.6 1.8-.6zM33.3 37.3h-2.6a1.3 1.3 0 000 2.7H32v9.3c0 .8-.6 1.4-1.3 1.4h-4V17.6l12-10.9v30.6h-5.4zM12 30.8L24 20v30.7h-8a1.3 1.3 0 000 2.6h1.3v9.4c0 .7-.6 1.3-1.3 1.3h-4V30.8zm41.3 46.5V44c0-.7.6-1.3 1.4-1.3h16c.7 0 1.3.6 1.3 1.3v33.3H53.3zm24 0h-2.6V44a4 4 0 00-4-4h-16a4 4 0 00-4 4v33.3H5.3V66.7H16a4 4 0 004-4v-9.4h10.7a4 4 0 004-4V40h10.6a4 4 0 004-4v-9.3H77.3v50.6zM66.7 24H56V2.7h10.7V24z"/></svg>