<svg fill="none" viewBox="0 0 78 78"><defs/><path fill="#242424" d="M52 47.7a5.2 5.2 0 003.7-8.8c-2-2-5.3-2-7.3 0a5.2 5.2 0 003.6 8.8zm-1.8-7a2.6 2.6 0 113.7 3.7 2.6 2.6 0 01-3.7-3.7z"/><path fill="#242424" d="M2.6 77.6h72.8c1.4 0 2.6-1.1 2.6-2.6V63.3c0-1.4-1.2-2.6-2.6-2.6h-6V60l.8-.2a2.7 2.7 0 002.6-3.2V56c.1-.2.4-.3.6-.3.7-.3 1.4-.8 1.8-1.4.3-.8.3-1.6 0-2.4v-.6l.4-.3c.7-.4 1.3-1 1.6-1.8 0-.8 0-1.6-.5-2.3l-.2-.6.4-.4c.6-.6 1-1.3 1.1-2 0-.9-.3-1.6-.9-2.2l-.4-.5.4-.6c.4-.6.7-1.4.6-2.2-.2-.8-.6-1.5-1.3-2-.2 0-.3-.2-.5-.4l.2-.5c.4-.8.4-1.6.2-2.4-.3-.7-1-1.3-1.7-1.6-.2 0-.3-.2-.5-.3v-.6c.2-.8.1-1.6-.3-2.3-.5-.6-1.2-1-2-1.2l-.5-.2-.1-.6c0-.8-.3-1.6-.8-2.2-.6-.6-1.4-.8-2.2-.8h-.6l-.2-.7a8 8 0 00-.3-.8l2.8-2.7a2.6 2.6 0 00-.4-4c-6.9-4.4-15.1-6-23.1-4.6l-1.2-1.3a4.6 4.6 0 00-1.1-9c-1.6 0-3.2.3-4.8.7A42.5 42.5 0 009.5 29.4c-1 3-1.7 6.1-2 9.3H2.5A2.6 2.6 0 000 41.3V75c0 1.5 1.2 2.6 2.6 2.6zm72.8-10.4H63.7a1.3 1.3 0 000 2.6h11.7V75H2.6V63.4H37l.9 1c.7.3 1.5.4 2.3.3h.6l.3.4c.3.8.9 1.4 1.6 1.7.8.3 1.6.2 2.4-.2l.5-.1.4.4c.5.7 1.2 1.1 2 1.3.8 0 1.6-.1 2.2-.6l.5-.4.6.4a3.4 3.4 0 002.1 1c.8-.2 1.5-.6 2-1.2l.4-.4.7.2c.7.5 1.5.6 2.3.5.7-.3 1.3-.8 1.7-1.5l.4-.5h.6c.8.3 1.6.3 2.3 0 .7-.4 1.2-1 1.5-1.8l.2-.6h9.9v4zM16.5 40c.2-2.6.8-5.1 1.6-7.6A33.2 33.2 0 0135.3 12l1.7 1.9A32.7 32.7 0 0024.6 60l.7.7H17V41.3c0-.5-.1-1-.4-1.4zm15 17.7c.2.2.4.2.7.3l.6.2v.6c0 .7.3 1.4.7 2h-5.2l.3-.3 2.8-2.8zM66 25.3c.5.5 1.3.7 2 .7h.5l.1.6c0 .7.2 1.4.6 2 .5.6 1.2 1 1.9 1l.5.2v.6c-.2.7-.1 1.4.2 2.1.3.6.9 1.1 1.6 1.4l.4.3-.1.5c-.3.7-.4 1.4-.3 2.1.3.7.7 1.3 1.3 1.7l.4.4-.3.5c-.4.6-.6 1.3-.7 2 .1.7.4 1.4 1 2l.2.4-.3.4c-.6.5-1 1.1-1.1 1.8 0 .7.1 1.5.5 2l.2.6-.4.3c-.7.4-1.2 1-1.5 1.6-.2.7-.2 1.4 0 2l.1.6-.4.3a2.9 2.9 0 00-2.2 3.3v.5a6 6 0 01-.5.2 2.9 2.9 0 00-2.9 2.8v.5h-.6c-1.5-.3-3 .7-3.3 2.2l-.3.5-.5-.2c-.7-.2-1.4-.2-2.1 0-.7.3-1.2.8-1.6 1.5l-.3.4-.5-.2c-1.3-.9-3-.6-4 .6a7 7 0 01-.3.4l-.5-.4c-.5-.4-1.2-.8-2-.8-.6 0-1.4.2-2 .6l-.4.3-.4-.4c-.4-.6-1-1-1.7-1.3-.7-.1-1.4 0-2 .3l-.6.2-.3-.5c-.3-.7-.8-1.2-1.4-1.6-.7-.3-1.4-.4-2.1-.2h-.6l-.2-.5c-.1-.7-.5-1.3-1-1.8-.6-.5-1.3-.7-2-.7a6 6 0 01-.6 0v-.6c0-.7-.3-1.4-.7-2a3 3 0 00-1.3-.9l3.5-3.5c.7-.7 1-1.7.7-2.6l-1-3.5c-.4-1.3 0-2.8 1-3.8l14-14c1-1 2.5-1.4 3.8-1l3.5 1c1 .2 1.9 0 2.6-.7L65 24c.1.5.4 1 .9 1.3zM52 12.7c5.7 0 11.2 1.6 16 4.6l-8.4 8.4-3.4-1c-2.3-.7-4.8 0-6.4 1.6l-14 14a6.5 6.5 0 00-1.7 6.5l1 3.4-4.7 4.8-3.7 3.6a29.9 29.9 0 0125.3-46zm-12.6 0l-1.6-1.8c1.4-.5 2.8-1 4.2-1.2l1.4 1.6c-1.4.3-2.7.8-4 1.3zM12 30.1A39.9 39.9 0 0139.9 3.5a24 24 0 014.3-.6c.5 0 1 .2 1.3.5a2 2 0 01-1.2 3.4A28.2 28.2 0 0035 9.2c-6.5 2.8-14.9 9-19.4 22.3-.8 2.3-1.4 4.7-1.7 7.2h-4c.4-3 1-5.7 2-8.5zM9 41.2V44a1.3 1.3 0 002.6 0v-2.6h2.6v19.4h-2.6V49.1a1.3 1.3 0 10-2.6 0v11.6H2.6V41.3h6.5z"/><path fill="#242424" d="M40.3 67.2H22.1a1.3 1.3 0 000 2.6h18.2a1.3 1.3 0 000-2.6zM66.8 47.6a1.3 1.3 0 102.4 1c2.8-7-1.2-13.9-1.4-14.1a1.3 1.3 0 00-2.2 1.3s3.5 6 1.2 11.8zM57.1 56c-5.8 2.3-11.8-1.2-11.8-1.2a1.3 1.3 0 00-1.4 2.2c2.8 1.6 5.8 2.4 9 2.4 1.7 0 3.5-.3 5.2-1a1.3 1.3 0 10-1-2.4z"/></svg>