<svg width="38" height="48" viewBox="0 0 38 48" fill="none" xmlns="http://www.w3.org/2000/svg">
<path d="M3.79961 42.4H6.19961V44.8C6.19961 46.5673 7.6323 48 9.39961 48H34.1996C35.9669 48 37.3996 46.5673 37.3996 44.8V14.4C37.3996 12.6327 35.9669 11.2 34.1996 11.2H32.5996V8.8C32.5996 7.03269 31.1669 5.6 29.3996 5.6H21.3996V5.2C21.3996 2.32812 19.0715 0 16.1996 0C13.3277 0 10.9996 2.32812 10.9996 5.2V5.6H3.79961C2.0323 5.6 0.599609 7.03269 0.599609 8.8V12C0.599609 12.4418 0.957782 12.8 1.39961 12.8C1.84144 12.8 2.19961 12.4418 2.19961 12V8.8C2.19961 7.91634 2.91595 7.2 3.79961 7.2H10.9996V11.2H9.39961C7.6323 11.2 6.19961 12.6327 6.19961 14.4V40.8H3.79961C2.91595 40.8 2.19961 40.0837 2.19961 39.2V16C2.19961 15.5582 1.84144 15.2 1.39961 15.2C0.957782 15.2 0.599609 15.5582 0.599609 16V39.2C0.599609 40.9673 2.0323 42.4 3.79961 42.4ZM12.5996 5.2C12.5996 3.21177 14.2114 1.6 16.1996 1.6C18.1878 1.6 19.7996 3.21177 19.7996 5.2V5.6H14.9996C14.5578 5.6 14.1996 5.95817 14.1996 6.4C14.1996 6.84183 14.5578 7.2 14.9996 7.2H29.3996C30.2833 7.2 30.9996 7.91634 30.9996 8.8V11.2H21.286C20.8849 9.64138 19.3866 8.6248 17.79 8.82797C16.1935 9.03115 14.9976 10.3906 14.9996 12V13.6C14.9996 14.0418 15.3578 14.4 15.7996 14.4C16.2414 14.4 16.5996 14.0418 16.5996 13.6V12C16.5996 11.1163 17.316 10.4 18.1996 10.4C19.0833 10.4 19.7996 11.1163 19.7996 12V13.2C19.7996 15.1882 18.1878 16.8 16.1996 16.8C14.2114 16.8 12.5996 15.1882 12.5996 13.2V5.2ZM7.79961 14.4C7.79961 13.5163 8.51595 12.8 9.39961 12.8H10.9996V13.2C10.9996 16.0719 13.3277 18.4 16.1996 18.4C19.0715 18.4 21.3996 16.0719 21.3996 13.2V12.8H34.1996C35.0833 12.8 35.7996 13.5163 35.7996 14.4V44.8C35.7996 45.6837 35.0833 46.4 34.1996 46.4H9.39961C8.51595 46.4 7.79961 45.6837 7.79961 44.8V14.4Z" fill="#242424"/>
<path d="M32.5994 43.1999H30.1994C29.7576 43.1999 29.3994 43.5581 29.3994 43.9999C29.3994 44.4417 29.7576 44.7999 30.1994 44.7999H33.3994C33.8412 44.7999 34.1994 44.4417 34.1994 43.9999V40.7999C34.1994 40.3581 33.8412 39.9999 33.3994 39.9999C32.9576 39.9999 32.5994 40.3581 32.5994 40.7999V43.1999Z" fill="#242424"/>
<path d="M11.8 23.2H31.8C32.2418 23.2 32.6 22.8418 32.6 22.4C32.6 21.9582 32.2418 21.6 31.8 21.6H11.8C11.3582 21.6 11 21.9582 11 22.4C11 22.8418 11.3582 23.2 11.8 23.2Z" fill="#242424"/>
<path d="M11.8 28H31.8C32.2418 28 32.6 27.6418 32.6 27.2C32.6 26.7582 32.2418 26.4 31.8 26.4H11.8C11.3582 26.4 11 26.7582 11 27.2C11 27.6418 11.3582 28 11.8 28Z" fill="#242424"/>
<path d="M11.8 32.7999H31.8C32.2418 32.7999 32.6 32.4418 32.6 31.9999C32.6 31.5581 32.2418 31.2 31.8 31.2H11.8C11.3582 31.2 11 31.5581 11 31.9999C11 32.4418 11.3582 32.7999 11.8 32.7999Z" fill="#242424"/>
<path d="M11.8 37.6H22.2C22.6418 37.6 23 37.2418 23 36.8C23 36.3582 22.6418 36 22.2 36H11.8C11.3582 36 11 36.3582 11 36.8C11 37.2418 11.3582 37.6 11.8 37.6Z" fill="#242424"/>
</svg>
