<svg xmlns="http://www.w3.org/2000/svg" fill="none" viewBox="0 0 51 50"><defs/><g><path stroke="#B78544" stroke-width="2.8" d="M47.5 12c.3-1.2 0-2-1.6-2h-5c-1.4 0-2 .7-2.3 1.5 0 0-2.6 6.4-6.3 10.6-1.1 1.3-1.7 1.7-2.3 1.7-.4 0-.9-.4-.9-1.5V11.9c0-1.3-.3-1.9-1.4-1.9h-8c-.8 0-1.3.6-1.3 1.2 0 1.3 1.8 1.5 2 5V24c0 1.7-.3 2-1 2-1.7 0-5.9-6.5-8.4-14-.5-1.4-1-2-2.3-2h-5c-1.5 0-1.8.7-1.8 1.5 0 1.4 1.7 8.2 8 17.3 4.3 6.2 10.2 9.5 15.6 9.5 3.3 0 3.7-.7 3.7-2v-4.7c0-1.5.3-1.8 1.3-1.8.8 0 2 .4 5 3.4 3.5 3.5 4.1 5.1 6 5.1h5.2c1.4 0 2.2-.7 1.7-2.2-.4-1.5-2-3.6-4.3-6.1-1.2-1.4-3-3-3.5-3.8-.7-1-.5-1.4 0-2.3 0 0 6.2-9 6.9-12h0z" clip-rule="evenodd"/></g><defs><clipPath id="clip0"><rect width="50" height="50" fill="#fff" transform="translate(.2)"/></clipPath></defs></svg>
