<svg width="16" height="16" viewBox="0 0 16 16" fill="none" xmlns="http://www.w3.org/2000/svg">
<path fill-rule="evenodd" clip-rule="evenodd" d="M7.94031 0.3302C8.1615 0.3302 8.34082 0.509516 8.34082 0.730714L8.34082 15.1492C8.34082 15.3704 8.1615 15.5497 7.94031 15.5497C7.71911 15.5497 7.53979 15.3704 7.53979 15.1492L7.53979 0.730714C7.53979 0.509516 7.71911 0.3302 7.94031 0.3302Z" fill="white"/>
<path fill-rule="evenodd" clip-rule="evenodd" d="M7.9397 0.200073C8.2327 0.200073 8.47021 0.437592 8.47021 0.730587L8.47021 15.1491C8.47021 15.4421 8.2327 15.6796 7.9397 15.6796C7.64671 15.6796 7.40919 15.4421 7.40919 15.1491L7.40919 0.730587C7.40919 0.437592 7.64671 0.200073 7.9397 0.200073ZM8.34021 0.730587C8.34021 0.509389 8.1609 0.330073 7.9397 0.330073C7.7185 0.330073 7.53919 0.509389 7.53919 0.730587L7.53919 15.1491C7.53919 15.3703 7.7185 15.5496 7.9397 15.5496C8.1609 15.5496 8.34021 15.3703 8.34021 15.1491L8.34021 0.730587Z" fill="white"/>
<path fill-rule="evenodd" clip-rule="evenodd" d="M15.5498 7.94022C15.5498 8.16141 15.3705 8.34073 15.1493 8.34073L0.730804 8.34073C0.509607 8.34073 0.330292 8.16141 0.330292 7.94021C0.330292 7.71902 0.509607 7.5397 0.730805 7.5397L15.1493 7.5397C15.3705 7.5397 15.5498 7.71902 15.5498 7.94022Z" fill="white"/>
<path fill-rule="evenodd" clip-rule="evenodd" d="M15.6797 7.93991C15.6797 8.23291 15.4422 8.47043 15.1492 8.47043L0.730688 8.47043C0.437695 8.47043 0.200174 8.23291 0.200174 7.93991C0.200174 7.64692 0.437695 7.4094 0.730688 7.4094L15.1492 7.4094C15.4422 7.4094 15.6797 7.64692 15.6797 7.93991ZM15.1492 8.34043C15.3704 8.34043 15.5497 8.16111 15.5497 7.93991C15.5497 7.71872 15.3704 7.5394 15.1492 7.5394L0.730688 7.5394C0.509491 7.5394 0.330175 7.71872 0.330175 7.93991C0.330175 8.16111 0.509491 8.34043 0.730688 8.34043L15.1492 8.34043Z" fill="white"/>
</svg>
