<svg fill="none" viewBox="0 0 84 84"><defs/><path fill="#242424" d="M83.2 11.4c-.5-.3-1-.2-1.5.1L59 29a2.8 2.8 0 00-.7 3.7l-3.6 1-5.2-2.3h-.3c-5-1-7.7-.1-9 1H25.9c.5-1.2.1-2.6-.9-3.4L2.3 11.5A1.4 1.4 0 000 12.6v33.6c0 .5.3 1 .7 1.2l8.7 5a2.8 2.8 0 003.3-.4l1.6 1.3a4.2 4.2 0 004 6.7c0 1 .4 2 1 2.7a4.9 4.9 0 003.8 1.7 4.1 4.1 0 005.7 3.7 4.1 4.1 0 004 3 4 4 0 002.6-.9l2.2-1.7 5.2 3.5a4.9 4.9 0 003.7.7 4.9 4.9 0 003.9-4.3 4.8 4.8 0 006.2-4.3 4.9 4.9 0 006.3-5.4 4.8 4.8 0 004.1-6.1l2.8-2.8 1.1 1.7a2.8 2.8 0 003.7.9l8.7-5c.4-.2.7-.7.7-1.2V12.6c0-.5-.3-1-.8-1.2zm-80.4 34v-30l15.6 12L5.6 47l-2.8-1.6zm8 4.6L8 48.4l12.7-19.3 2.6 2L10.8 50zm7.7 7c-.3.2-.7.3-1 .2a1.4 1.4 0 01-.9-2.3l3.5-2.7a1.4 1.4 0 011-.4 1.4 1.4 0 01.9 2.4L18.5 57zm4.4 4.6a2.1 2.1 0 01-1.2-3.6l4.4-3.4a2.1 2.1 0 012.8 3l-1.2 1-3.2 2.5a2 2 0 01-1.6.5zm7.2 2.2l-1.9 1.5A1.4 1.4 0 0126 64c0-.3.1-.7.4-.9l3.3-2.6 1-.7 1-.8a1.4 1.4 0 011-.3 1.4 1.4 0 01.8 2.4l-3.3 2.5H30zm7 1.5L33.8 68c-.3.3-.7.4-1 .3a1.4 1.4 0 01-.9-2.3h.1l3.4-2.7a1.4 1.4 0 011.9 2zm27-10.3c-.7 1-2 1.3-3 .6L52 49.3a1.4 1.4 0 10-1.6 2.3l8.9 6.1a2 2 0 01-2.3 3.5L47.8 55a1.4 1.4 0 00-1.6 2.3l6.7 4.6c1 .7 1.2 2 .6 3a2 2 0 01-2.9.6l-2.5-1.7-2.5-1.8a1.4 1.4 0 10-1.6 2.3l2.6 1.8.3.3a2.1 2.1 0 01-2.6 3.3l-4.6-3a4.1 4.1 0 00-3-6.4 4.1 4.1 0 00-4.4-4.2 4.9 4.9 0 00-7.3-4 4.2 4.2 0 00-6.6-2l-2 1.5-2.1-1.8L24 35h12.3a4 4 0 002 7c2.6.4 5.2 0 7.6-1l3.6 2.2.2.1 13.7 8.8c.2.2.5.4.6.7.4.8.4 1.6 0 2.2zm1.4-4.8a5 5 0 00-.5-.4l-13.8-9H51l-4.2-2.6c-.4-.3-1-.3-1.4 0a11 11 0 01-6.6 1c-.5 0-.9-.4-1-1 0-.5.2-1 .7-1.3a16.1 16.1 0 003.1-2.2l.2-.2c.4-.3 2.1-1.4 6.7-.5l5.6 2.3c.2.1.6.2.9 0l5-1.3 8.2 12.5-2.7 2.7zm7.7-.2L60.7 31l2.6-2L76 48.4 73.2 50zm8-4.6L78.4 47 65.6 27.4l15.6-12v30z"/></svg>