<svg xmlns="http://www.w3.org/2000/svg" xmlns:xlink="http://www.w3.org/1999/xlink"><defs><clipPath id="clip0"><rect width="260" height="38" fill="#fff"/></clipPath><clipPath id="clip1"><rect width="39" height="34.7" fill="#fff" transform="translate(0 2.6)"/></clipPath><ellipse id="SVGID_1_" transform="rotate(-37.001 420.46 67.88)" cx="420.5" cy="67.9" rx="63" ry="51.8"/><path id="SVGID_3_" transform="rotate(-37.001 420.82 68.353)" d="M330.9-14.2h179.8v165.1H330.9z"/><ellipse id="SVGID_5_" transform="rotate(-37.001 420.46 67.88)" cx="420.5" cy="67.9" rx="63" ry="51.8"/><path id="SVGID_7_" transform="rotate(-37 420.799 68.802)" d="M357.8 17h125.9v103.7H357.8z"/><path id="SVGID_9_" transform="rotate(-37 420.799 68.802)" d="M357.8 17h125.9v103.7H357.8z"/>
<clipPath id="clip0">
<rect width="23.9786" height="23.9786" fill="#ffffff" transform="translate(0.960938 0.693115)"/>
</clipPath>
<clipPath id="clip0"><rect width="78" height="78" fill="#fff"/></clipPath><clipPath id="clip0"><rect width="78" height="78" fill="#fff"/></clipPath><clipPath id="clip0"><rect width="76" height="76" fill="#fff"/></clipPath><clipPath id="clip0"><rect width="50" height="50" fill="#fff" transform="translate(.2)"/></clipPath><clipPath id="clip0"><rect width="80" height="80" fill="#fff"/></clipPath></defs><symbol id="icon-arrow-black" viewBox="0 0 9 16">
<path d="M8.70711 7.29289C9.09763 7.68342 9.09763 8.31658 8.70711 8.70711L2.34315 15.0711C1.95262 15.4616 1.31946 15.4616 0.928933 15.0711C0.538408 14.6805 0.538408 14.0474 0.928933 13.6569L6.58579 8L0.928932 2.34315C0.538407 1.95262 0.538407 1.31946 0.928932 0.928933C1.31946 0.538408 1.95262 0.538408 2.34315 0.928933L8.70711 7.29289ZM7 7L8 7L8 9L7 9L7 7Z" fill="inherit"/>
</symbol><symbol id="icon-arrow-slider" viewBox="0 0 12 22">
<path d="M0.999998 1L11 11L1 21" stroke="white" stroke-linecap="round" stroke-linejoin="round"/>
</symbol><symbol id="icon-arrow" viewBox="0 0 9 16"><path fill="inherit" d="M8.7 7.3a1 1 0 010 1.4l-6.36 6.37a1 1 0 01-1.41-1.41L6.59 8 .93 2.34A1 1 0 012.34.93l6.37 6.36zM7 7h1v2H7V7z"/></symbol><symbol id="icon-burger" viewBox="0 0 30 30">
<path d="M3.75 15H26.25" stroke="#242424" stroke-width="2" stroke-linecap="round" stroke-linejoin="round"/>
<path d="M3.75 7.5H26.25" stroke="#242424" stroke-width="2" stroke-linecap="round" stroke-linejoin="round"/>
<path d="M3.75 22.5H26.25" stroke="#242424" stroke-width="2" stroke-linecap="round" stroke-linejoin="round"/>
</symbol><symbol id="icon-cross" viewBox="0 0 30 30">
<path d="M22.5 7.5L7.5 22.5" stroke="#242424" stroke-width="2" stroke-linecap="round" stroke-linejoin="round"/>
<path d="M7.5 7.5L22.5 22.5" stroke="#242424" stroke-width="2" stroke-linecap="round" stroke-linejoin="round"/>
</symbol><symbol id="icon-discord" viewBox="0 0 24 24"><g fill="#b78544"><path d="m3.58 21.196h14.259l-.681-2.205c.101.088 5.842 5.009 5.842 5.009v-21.525c-.068-1.338-1.22-2.475-2.648-2.475l-16.767.003c-1.427 0-2.585 1.139-2.585 2.477v16.24c0 1.411 1.156 2.476 2.58 2.476zm10.548-15.513-.033.012.012-.012zm-7.631 1.269c1.833-1.334 3.532-1.27 3.532-1.27l.137.135c-2.243.535-3.26 1.537-3.26 1.537.104-.022 4.633-2.635 10.121.066 0 0-1.019-.937-3.124-1.537l.186-.183c.291.001 1.831.055 3.479 1.26 0 0 1.844 3.15 1.844 7.02-.061-.074-1.144 1.666-3.931 1.726 0 0-.472-.534-.808-1 1.63-.468 2.24-1.404 2.24-1.404-3.173 1.998-5.954 1.686-9.281.336-.031 0-.045-.014-.061-.03v-.006c-.016-.015-.03-.03-.061-.03h-.06c-.204-.134-.34-.2-.34-.2s.609.936 2.174 1.404c-.411.469-.818 1.002-.818 1.002-2.786-.066-3.802-1.806-3.802-1.806 0-3.876 1.833-7.02 1.833-7.02z"/><path d="m14.308 12.771c.711 0 1.29-.6 1.29-1.34 0-.735-.576-1.335-1.29-1.335v.003c-.708 0-1.288.598-1.29 1.338 0 .734.579 1.334 1.29 1.334z"/><path d="m9.69 12.771c.711 0 1.29-.6 1.29-1.34 0-.735-.575-1.335-1.286-1.335l-.004.003c-.711 0-1.29.598-1.29 1.338 0 .734.579 1.334 1.29 1.334z"/></g></symbol><symbol id="icon-fb" viewBox="0 0 14 30">
<g>
<path d="M4.06332 14.2693V26H8.47365V14.2693H12.8031L13 10.0456H8.47365V6.96163C8.47365 5.7971 8.71455 5.09548 10.2181 5.09548C11.6074 5.09548 12.8805 5.10803 12.8805 5.10803L12.9788 1.16387C12.9788 1.16387 11.7305 1 10.0423 1C5.87284 1 4.06332 3.6033 4.06332 6.43813V10.0456H1V14.2693H4.06332Z" stroke="none" stroke-opacity="0.5" stroke-width="2"/>
</g>
</symbol><symbol id="icon-file" viewBox="0 0 38 48">
<path d="M3.79961 42.4H6.19961V44.8C6.19961 46.5673 7.6323 48 9.39961 48H34.1996C35.9669 48 37.3996 46.5673 37.3996 44.8V14.4C37.3996 12.6327 35.9669 11.2 34.1996 11.2H32.5996V8.8C32.5996 7.03269 31.1669 5.6 29.3996 5.6H21.3996V5.2C21.3996 2.32812 19.0715 0 16.1996 0C13.3277 0 10.9996 2.32812 10.9996 5.2V5.6H3.79961C2.0323 5.6 0.599609 7.03269 0.599609 8.8V12C0.599609 12.4418 0.957782 12.8 1.39961 12.8C1.84144 12.8 2.19961 12.4418 2.19961 12V8.8C2.19961 7.91634 2.91595 7.2 3.79961 7.2H10.9996V11.2H9.39961C7.6323 11.2 6.19961 12.6327 6.19961 14.4V40.8H3.79961C2.91595 40.8 2.19961 40.0837 2.19961 39.2V16C2.19961 15.5582 1.84144 15.2 1.39961 15.2C0.957782 15.2 0.599609 15.5582 0.599609 16V39.2C0.599609 40.9673 2.0323 42.4 3.79961 42.4ZM12.5996 5.2C12.5996 3.21177 14.2114 1.6 16.1996 1.6C18.1878 1.6 19.7996 3.21177 19.7996 5.2V5.6H14.9996C14.5578 5.6 14.1996 5.95817 14.1996 6.4C14.1996 6.84183 14.5578 7.2 14.9996 7.2H29.3996C30.2833 7.2 30.9996 7.91634 30.9996 8.8V11.2H21.286C20.8849 9.64138 19.3866 8.6248 17.79 8.82797C16.1935 9.03115 14.9976 10.3906 14.9996 12V13.6C14.9996 14.0418 15.3578 14.4 15.7996 14.4C16.2414 14.4 16.5996 14.0418 16.5996 13.6V12C16.5996 11.1163 17.316 10.4 18.1996 10.4C19.0833 10.4 19.7996 11.1163 19.7996 12V13.2C19.7996 15.1882 18.1878 16.8 16.1996 16.8C14.2114 16.8 12.5996 15.1882 12.5996 13.2V5.2ZM7.79961 14.4C7.79961 13.5163 8.51595 12.8 9.39961 12.8H10.9996V13.2C10.9996 16.0719 13.3277 18.4 16.1996 18.4C19.0715 18.4 21.3996 16.0719 21.3996 13.2V12.8H34.1996C35.0833 12.8 35.7996 13.5163 35.7996 14.4V44.8C35.7996 45.6837 35.0833 46.4 34.1996 46.4H9.39961C8.51595 46.4 7.79961 45.6837 7.79961 44.8V14.4Z" fill="#242424"/>
<path d="M32.5994 43.1999H30.1994C29.7576 43.1999 29.3994 43.5581 29.3994 43.9999C29.3994 44.4417 29.7576 44.7999 30.1994 44.7999H33.3994C33.8412 44.7999 34.1994 44.4417 34.1994 43.9999V40.7999C34.1994 40.3581 33.8412 39.9999 33.3994 39.9999C32.9576 39.9999 32.5994 40.3581 32.5994 40.7999V43.1999Z" fill="#242424"/>
<path d="M11.8 23.2H31.8C32.2418 23.2 32.6 22.8418 32.6 22.4C32.6 21.9582 32.2418 21.6 31.8 21.6H11.8C11.3582 21.6 11 21.9582 11 22.4C11 22.8418 11.3582 23.2 11.8 23.2Z" fill="#242424"/>
<path d="M11.8 28H31.8C32.2418 28 32.6 27.6418 32.6 27.2C32.6 26.7582 32.2418 26.4 31.8 26.4H11.8C11.3582 26.4 11 26.7582 11 27.2C11 27.6418 11.3582 28 11.8 28Z" fill="#242424"/>
<path d="M11.8 32.7999H31.8C32.2418 32.7999 32.6 32.4418 32.6 31.9999C32.6 31.5581 32.2418 31.2 31.8 31.2H11.8C11.3582 31.2 11 31.5581 11 31.9999C11 32.4418 11.3582 32.7999 11.8 32.7999Z" fill="#242424"/>
<path d="M11.8 37.6H22.2C22.6418 37.6 23 37.2418 23 36.8C23 36.3582 22.6418 36 22.2 36H11.8C11.3582 36 11 36.3582 11 36.8C11 37.2418 11.3582 37.6 11.8 37.6Z" fill="#242424"/>
</symbol><symbol id="icon-github" viewBox="0 0 438.536 438.536">
<g>
	<g>
		<path d="M158.173,352.599c-3.049,0.568-4.381,1.999-3.999,4.281c0.38,2.283,2.093,3.046,5.138,2.283
			c3.049-0.76,4.38-2.095,3.997-3.997C162.931,353.074,161.218,352.216,158.173,352.599z"/>
		<path d="M141.898,354.885c-3.046,0-4.568,1.041-4.568,3.139c0,2.474,1.619,3.518,4.853,3.138c3.046,0,4.57-1.047,4.57-3.138
			C146.753,355.553,145.134,354.502,141.898,354.885z"/>
		<path d="M119.629,354.022c-0.76,2.095,0.478,3.519,3.711,4.284c2.855,1.137,4.664,0.568,5.424-1.714
			c0.572-2.091-0.666-3.61-3.711-4.568C122.197,351.265,120.39,351.922,119.629,354.022z"/>
		<path d="M414.41,24.123C398.326,8.042,378.964,0,356.309,0H82.225C59.577,0,40.208,8.042,24.123,24.123
			C8.042,40.207,0,59.576,0,82.225v274.088c0,22.65,8.042,42.017,24.123,58.098c16.084,16.084,35.454,24.126,58.102,24.126h63.953
			c4.184,0,7.327-0.144,9.42-0.424c2.092-0.288,4.184-1.526,6.279-3.717c2.096-2.187,3.14-5.376,3.14-9.562
			c0-0.568-0.05-7.046-0.144-19.417c-0.097-12.375-0.144-22.176-0.144-29.41l-6.567,1.143c-4.187,0.76-9.469,1.095-15.846,0.999
			c-6.374-0.096-12.99-0.76-19.841-1.998c-6.855-1.239-13.229-4.093-19.13-8.562c-5.898-4.477-10.085-10.328-12.56-17.559
			l-2.856-6.571c-1.903-4.373-4.899-9.229-8.992-14.554c-4.093-5.332-8.232-8.949-12.419-10.852l-1.999-1.428
			c-1.331-0.951-2.568-2.098-3.711-3.429c-1.141-1.335-1.997-2.669-2.568-3.997c-0.571-1.335-0.097-2.43,1.427-3.289
			c1.524-0.855,4.281-1.279,8.28-1.279l5.708,0.855c3.808,0.76,8.516,3.042,14.134,6.851c5.614,3.806,10.229,8.754,13.846,14.843
			c4.38,7.806,9.657,13.75,15.846,17.843c6.184,4.097,12.419,6.143,18.699,6.143s11.704-0.476,16.274-1.424
			c4.565-0.954,8.848-2.385,12.847-4.288c1.713-12.751,6.377-22.559,13.988-29.41c-10.848-1.143-20.602-2.854-29.265-5.14
			c-8.658-2.286-17.605-5.995-26.835-11.136c-9.234-5.14-16.894-11.512-22.985-19.13c-6.09-7.618-11.088-17.61-14.987-29.978
			c-3.901-12.375-5.852-26.652-5.852-42.829c0-23.029,7.521-42.637,22.557-58.814c-7.044-17.32-6.379-36.732,1.997-58.242
			c5.52-1.714,13.706-0.428,24.554,3.855c10.85,4.286,18.794,7.951,23.84,10.992c5.046,3.042,9.089,5.614,12.135,7.71
			c17.705-4.949,35.976-7.423,54.818-7.423c18.841,0,37.115,2.474,54.821,7.423l10.849-6.852c7.426-4.57,16.18-8.757,26.269-12.562
			c10.088-3.806,17.795-4.854,23.127-3.14c8.562,21.51,9.328,40.922,2.279,58.241c15.036,16.179,22.559,35.786,22.559,58.815
			c0,16.18-1.951,30.505-5.852,42.969c-3.898,12.467-8.939,22.463-15.13,29.981c-6.184,7.519-13.894,13.843-23.124,18.986
			c-9.232,5.137-18.178,8.853-26.84,11.132c-8.661,2.286-18.414,4.004-29.263,5.147c9.891,8.562,14.839,22.072,14.839,40.538v68.238
			c0,3.237,0.472,5.852,1.424,7.851c0.958,1.998,2.478,3.374,4.571,4.141c2.102,0.76,3.949,1.235,5.571,1.424
			c1.622,0.191,3.949,0.287,6.995,0.287h63.953c22.648,0,42.018-8.042,58.095-24.126c16.084-16.084,24.126-35.454,24.126-58.102
			V82.225C438.533,59.576,430.491,40.204,414.41,24.123z"/>
		<path d="M86.793,319.195c-1.331,0.948-1.141,2.471,0.572,4.565c1.906,1.902,3.427,2.189,4.57,0.855
			c1.331-0.948,1.141-2.471-0.575-4.569C89.458,318.336,87.936,318.049,86.793,319.195z"/>
		<path d="M77.374,312.057c-0.57,1.335,0.096,2.478,1.999,3.426c1.521,0.955,2.762,0.767,3.711-0.568
			c0.57-1.335-0.096-2.478-1.999-3.433C79.182,310.91,77.945,311.102,77.374,312.057z"/>
		<path d="M95.646,330.331c-1.715,0.948-1.715,2.666,0,5.137c1.713,2.478,3.328,3.142,4.853,1.998c1.714-1.334,1.714-3.142,0-5.427
			C98.978,329.571,97.359,328.993,95.646,330.331z"/>
		<path d="M105.641,343.174c-1.714,1.526-1.336,3.327,1.142,5.428c2.281,2.279,4.185,2.566,5.708,0.849
			c1.524-1.519,1.143-3.326-1.142-5.42C109.068,341.751,107.164,341.463,105.641,343.174z"/>
	</g>
</g>
<g>
</g>
<g>
</g>
<g>
</g>
<g>
</g>
<g>
</g>
<g>
</g>
<g>
</g>
<g>
</g>
<g>
</g>
<g>
</g>
<g>
</g>
<g>
</g>
<g>
</g>
<g>
</g>
<g>
</g>
</symbol><symbol id="icon-inst" viewBox="0 0 39 39"><path fill="#B78544" fill-rule="evenodd" d="M11.38.4c2.01-.1 2.66-.12 7.79-.12s5.77.02 7.78.11c2.01.1 3.39.41 4.6.88a9.3 9.3 0 013.34 2.18c.96.94 1.7 2.08 2.17 3.34.47 1.2.79 2.58.88 4.59.1 2.01.12 2.66.12 7.79s-.03 5.77-.12 7.78c-.09 2.01-.41 3.39-.88 4.59a9.27 9.27 0 01-2.17 3.35 9.26 9.26 0 01-3.35 2.17c-1.2.47-2.58.79-4.58.88-2.02.1-2.66.12-7.8.12a135 135 0 01-7.78-.12c-2.01-.09-3.38-.41-4.59-.88a9.27 9.27 0 01-3.34-2.17 9.26 9.26 0 01-2.18-3.35c-.47-1.2-.79-2.58-.88-4.58-.1-2.02-.11-2.66-.11-7.8 0-5.12.02-5.77.11-7.78C.5 9.37.8 8 1.27 6.8a9.27 9.27 0 012.18-3.34 9.26 9.26 0 013.34-2.18C8 .8 9.37.48 11.38.39zM26.8 3.8c-2-.1-2.59-.12-7.63-.12-5.05 0-5.64.02-7.64.11-1.84.08-2.84.4-3.5.65-.89.35-1.52.75-2.18 1.41a5.86 5.86 0 00-1.4 2.18c-.27.66-.57 1.66-.66 3.5-.09 2-.1 2.6-.1 7.64 0 5.04.01 5.64.1 7.63.09 1.84.4 2.84.65 3.5.3.83.79 1.57 1.41 2.18.61.63 1.36 1.1 2.18 1.41.66.26 1.66.57 3.5.65 2 .1 2.6.11 7.64.11 5.04 0 5.64-.02 7.63-.1 1.84-.1 2.84-.4 3.5-.66a5.87 5.87 0 002.18-1.41 5.86 5.86 0 001.41-2.17c.26-.67.57-1.67.65-3.51.1-2 .11-2.59.11-7.63 0-5.05-.02-5.64-.1-7.64-.1-1.84-.4-2.84-.66-3.5a5.87 5.87 0 00-1.41-2.18 5.86 5.86 0 00-2.17-1.4c-.67-.27-1.67-.58-3.51-.66zM16.75 24.98a6.3 6.3 0 104.85-11.63 6.3 6.3 0 00-4.85 11.63zM12.3 12.3a9.7 9.7 0 1113.73 13.73A9.7 9.7 0 0112.3 12.3zm18.73-1.4a2.3 2.3 0 10-3.15-3.34 2.3 2.3 0 003.15 3.34z" clip-rule="evenodd"/></symbol><symbol id="icon-logo-white" viewBox="0 0 260 38"><g><path fill="#fff" d="M52 15h7.9v1.4l-2.8.4 4 13.5.9 4 1-4 3.3-11-.8-2.5-2-.4V15h8.1v1.4l-2.9.4 4 13.5 1 4.4.8-4.4L78 16.8l-2.8-.4V15h6.9v1.4l-2 .4-5.7 20h-2.9L67.2 22l-4.3 14.6H60L54 16.8l-1.9-.4V15zM91.8 36.9a9 9 0 01-5-1.4 8.5 8.5 0 01-3.1-3.8c-.7-1.7-1-3.6-1-5.8 0-2.2.3-4.2 1.2-5.9.8-1.7 2-3 3.5-3.9 1.4-.9 3-1.4 5-1.4 3 0 5.3 1 6.8 3 1.7 1.8 2.5 4.4 2.5 7.8a13 13 0 01-1.3 6c-.9 1.7-2 3-3.6 4a9.3 9.3 0 01-5 1.4zm.4-20.7a5 5 0 00-4.5 2.5 13 13 0 00-1.6 7.2c0 3 .5 5.2 1.5 7a5 5 0 004.5 2.4 5 5 0 004.4-2.5c1.1-1.7 1.7-4 1.7-7.3 0-2.9-.6-5.2-1.6-6.8a5 5 0 00-4.4-2.5zM112.8 36.9a9 9 0 01-5-1.4 8.5 8.5 0 01-3.2-3.8c-.7-1.7-1-3.6-1-5.8 0-2.2.4-4.2 1.3-5.9a9.1 9.1 0 018.5-5.3c3 0 5.2 1 6.8 3 1.6 1.8 2.4 4.4 2.4 7.8 0 2.3-.4 4.3-1.3 6a9.3 9.3 0 01-8.6 5.4zm.3-20.7a5 5 0 00-4.4 2.5A13 13 0 00107 26c0 3 .5 5.2 1.5 7a5 5 0 004.5 2.4 5 5 0 004.4-2.5c1.1-1.7 1.7-4 1.7-7.3 0-2.9-.6-5.2-1.6-6.8a5 5 0 00-4.5-2.5zM127.3 16.8l-2.2-.4V15h3.8a40.4 40.4 0 005.1-.3c3.6 0 6.3 1 8 2.8 1.8 1.8 2.7 4.3 2.7 7.6 0 2.3-.5 4.3-1.4 6a10 10 0 01-9.4 5.7 40.2 40.2 0 01-5-.2h-4V35l2.4-.2V16.8zm3.1 18.1c.7.2 1.6.3 2.6.3h1a7 7 0 003.8-1.1 7 7 0 002.6-3.2 13 13 0 00.9-5.2c0-3.1-.7-5.4-2-7-1.3-1.6-3.3-2.4-6-2.4a20.6 20.6 0 00-2.9.2V35zM154 36.9c-1 0-1.8-.1-2.6-.3a33.6 33.6 0 01-4-1l.3-5.3h1.8l.5 3.8c.3.3.9.6 1.6.8.8.3 1.6.4 2.5.4 1.5 0 2.6-.3 3.3-1 .8-.7 1.2-1.6 1.2-2.7a3 3 0 00-.6-2c-.4-.5-1-1-1.7-1.4l-2.8-1.3-2.9-1.5a7.6 7.6 0 01-2-2c-.6-.9-1-1.9-1-3 0-1.2.3-2.1 1-3 .5-.8 1.3-1.5 2.4-2a12.1 12.1 0 016.1-.5 35.8 35.8 0 013.4.9l-.2 4.8h-1.8l-.6-3.5a3 3 0 00-1.2-.6 7 7 0 00-2-.3c-1.3 0-2.3.3-3 .9-.7.6-1 1.4-1 2.4 0 .8.2 1.5.6 2 .4.5 1 1 1.5 1.3l3 1.5a35 35 0 013 1.7c.9.4 1.6 1 2.1 1.9.6.8.9 1.7.9 2.8 0 1-.3 2-.9 3-.5.9-1.4 1.7-2.6 2.3-1.2.6-2.6.9-4.2.9zM171.3 16.5l-5 .2-1 6h-2l.6-7.7H182l.3 7.8h-1.8l-1-6.1-5-.2V35l4.2.2v1.5h-11.2V35l3.8-.2V16.5zM191.5 14.8h3.2l7 20 1.8.3v1.5h-7.7V35l2.5-.2-1.4-4.3h-8.5l-1.4 4.3 2.5.2v1.5h-6.9V35l1.8-.2 7-20.1zm1.8 4.6l-.7-2.5-.7 2.6-3 9.3h7.4l-3-9.4zM207.4 16.8l-2.7-.4V15h8.6v1.4l-2.7.4v18l2.7.4v1.4h-8.5V35l2.6-.2V16.8zM216.2 35.1l2.4-.2V16.8l-2.2-.4V15h3.8c.5 0 1.3 0 2.2-.2h2.3c2.8 0 4.8.4 6 1.3 1.3 1 1.9 2.4 1.9 4.4 0 1.3-.4 2.6-1.2 3.7-.8 1.2-1.8 2-3.1 2.4.6.3 1.2.9 1.7 1.7a39.3 39.3 0 013.3 5.7c.3.5.7.8 1 .9l1 .2v1.5h-4c-.2 0-.6-.4-1-1l-1.5-3.1a41 41 0 00-1.9-3.7c-.5-.9-1-1.5-1.5-1.7h-3.7v7.8l3 .2v1.5h-8.5V35zm9-9.6c1.2 0 2.2-.4 3-1.2.7-.8 1-2 1-3.6 0-1.5-.3-2.5-1-3.3-.8-.7-2-1.1-3.8-1.1a15 15 0 00-2.7.2v9h3.5zM243.8 36.9c-1 0-2-.1-2.7-.3a33.6 33.6 0 01-4-1l.3-5.3h1.9l.4 3.8 1.6.8c.8.3 1.6.4 2.5.4 1.5 0 2.6-.3 3.4-1 .7-.7 1.1-1.6 1.1-2.7a3 3 0 00-.6-2c-.4-.5-1-1-1.7-1.4l-2.8-1.3-2.8-1.5a7.6 7.6 0 01-2.1-2c-.6-.9-1-1.9-1-3 0-1.2.4-2.1 1-3 .5-.8 1.3-1.5 2.4-2a12.1 12.1 0 016.1-.5 35.6 35.6 0 013.4.9l-.2 4.8h-1.8l-.5-3.5a3 3 0 00-1.3-.6 7 7 0 00-2-.3c-1.3 0-2.3.3-3 .9-.7.6-1 1.4-1 2.4 0 .8.2 1.5.6 2 .4.5 1 1 1.6 1.3l3 1.5a35 35 0 013 1.7c.8.4 1.5 1 2 1.9.6.8 1 1.7 1 2.8 0 1-.4 2-1 3-.5.9-1.4 1.7-2.6 2.3-1.1.6-2.5.9-4.2.9z"/><g clip-path="url(#clip1)"><path fill="#B78544" d="M38.3 12.5a1 1 0 00-1.1.3l-8.5 10.4-7.9-9.7 3.5-4.3c.3-.4.3-1 0-1.3l-4-5a1 1 0 00-1.6 0l-4 5a1 1 0 000 1.3l3.5 4.3-8 9.7-8.4-10.4a1 1 0 00-1.1-.3 1 1 0 00-.7 1V36.6h.1v.2a1 1 0 00.5.4.9.9 0 00.2 0H38.3a1 1 0 00.4-.2l.1-.2.1-.1a1 1 0 00.1-.4V13.4a1 1 0 00-.7-1zM9 25l-6.8 8.4v-17L8.9 25zM3.2 35.2l7-8.7 7.2 8.7H3.2zm33.7-18.8v17l-6.8-8.5 6.8-8.5zm-17.4-4.6l-2.7-3.3 2.7-3.3 2.7 3.3-2.7 3.3zm0 3.3l8 9.8-8 9.7-8-9.7 8-9.8zm9.2 11.4l7.1 8.7H21.6l7.1-8.7z"/></g></g></symbol><symbol id="icon-logo" viewBox="0 0 552.8 205.3"><style>.st0{fill:#fff}.st1{clip-path:url(#SVGID_2_)}.st2{clip-path:url(#SVGID_4_)}.st3{clip-path:url(#SVGID_6_)}.st4{clip-path:url(#SVGID_8_)}.st5{fill:#fff;stroke:#000;stroke-width:4;stroke-miterlimit:10}.st6{clip-path:url(#SVGID_8_)}.st6,.st7{fill:none;stroke:#000;stroke-width:4;stroke-miterlimit:10}.st8,.st9{clip-path:url(#SVGID_10_)}.st9{fill:none;stroke:#000;stroke-width:4;stroke-miterlimit:10}</style><title>rs_school_js</title><path d="M285.4 68l26.3-1.7c.6 4.3 1.7 7.5 3.5 9.8 2.9 3.6 6.9 5.4 12.2 5.4 3.9 0 7-.9 9.1-2.8 2-1.5 3.2-3.9 3.2-6.4 0-2.4-1.1-4.7-3-6.2-2-1.8-6.7-3.6-14.1-5.2-12.1-2.7-20.8-6.3-25.9-10.9-5.1-4.3-8-10.6-7.8-17.3 0-4.6 1.4-9.2 4-13 3-4.3 7.1-7.7 12-9.6 5.3-2.3 12.7-3.5 22-3.5 11.4 0 20.1 2.1 26.1 6.4 6 4.2 9.6 11 10.7 20.3l-26 1.5c-.7-4-2.1-6.9-4.4-8.8s-5.3-2.8-9.2-2.8c-3.2 0-5.6.7-7.2 2-1.5 1.2-2.5 3-2.4 5 0 1.5.8 2.9 2 3.8 1.3 1.2 4.4 2.3 9.3 3.3 12.1 2.6 20.7 5.2 26 7.9 5.3 2.7 9.1 6 11.4 9.9 2.4 4 3.6 8.6 3.5 13.3 0 5.6-1.6 11.2-4.8 15.9-3.3 4.9-7.9 8.7-13.3 11-5.7 2.5-12.9 3.8-21.5 3.8-15.2 0-25.7-2.9-31.6-8.8S286.1 77 285.4 68zM6.3 97.6V8.2h46.1c8.5 0 15.1.7 19.6 2.2 4.4 1.4 8.3 4.3 10.9 8.2 2.9 4.3 4.3 9.3 4.2 14.5.3 8.8-4.2 17.2-11.9 21.6-3 1.7-6.3 2.9-9.7 3.5 2.5.7 5 1.9 7.2 3.3 1.7 1.4 3.1 3 4.4 4.7 1.5 1.7 2.8 3.6 3.9 5.6l13.4 25.9H63L48.2 70.2c-1.9-3.5-3.5-5.8-5-6.9-2-1.4-4.4-2.1-6.8-2.1H34v36.3H6.3zM34 44.4h11.7c2.5-.2 4.9-.6 7.3-1.2 1.8-.3 3.4-1.3 4.5-2.8 2.7-3.6 2.3-8.7-1-11.8-1.8-1.5-5.3-2.3-10.3-2.3H34v18.1zM0 174.2l26.3-1.7c.6 4.3 1.7 7.5 3.5 9.8 2.8 3.6 6.9 5.5 12.2 5.5 3.9 0 7-.9 9.1-2.8 2-1.6 3.2-3.9 3.2-6.4 0-2.4-1.1-4.7-3-6.2-2-1.8-6.7-3.6-14.2-5.2-12.1-2.7-20.8-6.3-25.9-10.9-5.1-4.3-8-10.6-7.8-17.3 0-4.6 1.4-9.2 4-13 3-4.3 7.1-7.7 12-9.6 5.3-2.3 12.7-3.5 22-3.5 11.4 0 20.1 2.1 26.1 6.4s9.5 11 10.6 20.3l-26 1.5c-.7-4-2.1-6.9-4.4-8.8-2.2-1.9-5.3-2.8-9.2-2.7-3.2 0-5.6.7-7.2 2.1-1.6 1.2-2.5 3-2.4 5 0 1.5.8 2.9 2 3.8 1.3 1.2 4.4 2.3 9.3 3.3 12.1 2.6 20.7 5.2 26 7.9 5.3 2.7 9.1 6 11.4 9.9 2.4 4 3.6 8.6 3.6 13.2 0 5.6-1.7 11.1-4.8 15.8-3.3 4.9-7.9 8.7-13.3 11-5.7 2.5-12.9 3.8-21.5 3.8-15.2 0-25.7-2.9-31.6-8.8-5.9-6-9.2-13.4-10-22.4z"/><path d="M133 167.2l24.2 7.3c-1.3 6.1-4 11.9-7.7 17-3.4 4.5-7.9 8-13 10.3-5.2 2.3-11.8 3.5-19.8 3.5-9.7 0-17.7-1.4-23.8-4.2-6.2-2.8-11.5-7.8-16-14.9-4.5-7.1-6.7-16.2-6.7-27.3 0-14.8 3.9-26.2 11.8-34.1s19-11.9 33.4-11.9c11.3 0 20.1 2.3 26.6 6.8 6.4 4.6 11.2 11.6 14.4 21l-24.4 5.4c-.6-2.1-1.5-4.2-2.7-6-1.5-2.1-3.4-3.7-5.7-4.9-2.3-1.2-4.9-1.7-7.5-1.7-6.3 0-11.1 2.5-14.4 7.6-2.5 3.7-3.8 9.6-3.8 17.6 0 9.9 1.5 16.7 4.5 20.4 3 3.7 7.2 5.5 12.7 5.5 5.3 0 9.3-1.5 12-4.4 2.7-3.1 4.7-7.4 5.9-13zm56.5-52.8h27.6v31.3h30.2v-31.3h27.8v89.4h-27.8v-36.2h-30.2v36.2h-27.6v-89.4z"/><path d="M271.3 159.1c0-14.6 4.1-26 12.2-34.1 8.1-8.1 19.5-12.2 34-12.2 14.9 0 26.3 4 34.4 12S364 144 364 158.4c0 10.5-1.8 19-5.3 25.7-3.4 6.6-8.7 12-15.2 15.6-6.7 3.7-15 5.6-24.9 5.6-10.1 0-18.4-1.6-25-4.8-6.8-3.4-12.4-8.7-16.1-15.2-4.1-7-6.2-15.7-6.2-26.2zm27.6.1c0 9 1.7 15.5 5 19.5 3.3 3.9 7.9 5.9 13.7 5.9 5.9 0 10.5-1.9 13.8-5.8s4.9-10.8 4.9-20.8c0-8.4-1.7-14.6-5.1-18.4-3.4-3.9-8-5.8-13.8-5.8-5.1-.2-10 2-13.4 5.9-3.4 3.9-5.1 10.4-5.1 19.5zm93.4-.1c0-14.6 4.1-26 12.2-34.1 8.1-8.1 19.5-12.2 34-12.2 14.9 0 26.4 4 34.4 12S485 144 485 158.4c0 10.5-1.8 19-5.3 25.7-3.4 6.6-8.7 12-15.2 15.6-6.7 3.7-15 5.6-24.9 5.6-10.1 0-18.4-1.6-25-4.8-6.8-3.4-12.4-8.7-16.1-15.2-4.1-7-6.2-15.7-6.2-26.2zm27.6.1c0 9 1.7 15.5 5 19.5 3.3 3.9 7.9 5.9 13.7 5.9 5.9 0 10.5-1.9 13.8-5.8 3.3-3.9 4.9-10.8 4.9-20.8 0-8.4-1.7-14.6-5.1-18.4-3.4-3.9-8-5.8-13.8-5.8-5.1-.2-10.1 2-13.4 5.9-3.4 3.9-5.1 10.4-5.1 19.5z"/><path d="M482.1 114.4h27.6v67.4h43.1v22H482v-89.4z"/><ellipse transform="rotate(-37.001 420.46 67.88)" class="st0" cx="420.5" cy="67.9" rx="63" ry="51.8"/><clipPath id="SVGID_2_"><use xlink:href="#SVGID_1_" overflow="visible"/></clipPath><g class="st1"><path transform="rotate(-37.001 420.82 68.353)" class="st0" d="M330.9-14.2h179.8v165.1H330.9z"/><g id="Layer_2_1_"><clipPath id="SVGID_4_"><use xlink:href="#SVGID_3_" overflow="visible"/></clipPath><g id="Layer_1-2" class="st2"><ellipse transform="rotate(-37.001 420.46 67.88)" class="st0" cx="420.5" cy="67.9" rx="63" ry="51.8"/><clipPath id="SVGID_6_"><use xlink:href="#SVGID_5_" overflow="visible"/></clipPath><g class="st3"><path transform="rotate(-37 420.799 68.802)" class="st0" d="M357.8 17h125.9v103.7H357.8z"/><clipPath id="SVGID_8_"><use xlink:href="#SVGID_7_" overflow="visible"/></clipPath><g class="st4"><ellipse transform="rotate(-37.001 420.46 67.88)" class="st5" cx="420.5" cy="67.9" rx="63" ry="51.8"/></g><path transform="rotate(-37 420.799 68.802)" class="st6" d="M357.8 17h125.9v103.7H357.8z"/><ellipse transform="rotate(-37.001 420.46 67.88)" class="st7" cx="420.5" cy="67.9" rx="63" ry="51.8"/><path transform="rotate(-37 420.799 68.802)" class="st0" d="M357.8 17h125.9v103.7H357.8z"/><clipPath id="SVGID_10_"><use xlink:href="#SVGID_9_" overflow="visible"/></clipPath><g class="st8"><ellipse transform="rotate(-37.001 420.46 67.88)" class="st5" cx="420.5" cy="67.9" rx="63" ry="51.8"/></g><path transform="rotate(-37 420.799 68.802)" class="st9" d="M357.8 17h125.9v103.7H357.8z"/><path transform="rotate(-37.001 420.82 68.353)" class="st7" d="M330.9-14.2h179.8v165.1H330.9z"/></g><ellipse transform="rotate(-37.001 420.46 67.88)" class="st7" cx="420.5" cy="67.9" rx="63" ry="51.8"/><path d="M392.4 61.3l10-7 12.3 17.5c2.1 2.8 3.7 5.8 4.9 9.1.7 2.5.5 5.2-.5 7.6-1.3 3-3.4 5.5-6.2 7.3-3.3 2.3-6.1 3.6-8.5 4-2.3.4-4.7 0-6.9-1-2.4-1.2-4.5-2.9-6.1-5.1l8.6-8c.7 1.1 1.6 2.1 2.6 2.9.7.5 1.5.8 2.4.8.7 0 1.4-.3 1.9-.7 1-.6 1.7-1.8 1.6-3-.3-1.7-1-3.4-2.1-4.7l-14-19.7zm30 11.1l9.1-7.2c1 1.2 2.3 2.1 3.7 2.6 2 .6 4.1.2 5.8-1.1 1.2-.8 2.2-1.9 2.6-3.3.6-1.8-.4-3.8-2.2-4.4-.3-.1-.6-.2-.9-.2-1.2-.1-3.3.4-6.4 1.7-5.1 2.1-9.1 2.9-12.1 2.6-2.9-.3-5.6-1.8-7.2-4.3-1.2-1.7-1.8-3.7-1.9-5.7 0-2.3.6-4.6 1.9-6.5 1.9-2.7 4.2-5 7-6.8 4.2-2.9 7.9-4.3 11.1-4.3 3.2 0 6.2 1.5 9 4.6l-9 7.1c-1.8-2.3-5.2-2.8-7.5-1l-.3.3c-1 .6-1.7 1.5-2.1 2.6-.3.8-.1 1.7.4 2.4.4.5 1 .9 1.7.9.8.1 2.2-.3 4.2-1.2 5-2.1 8.8-3.3 11.4-3.7 2.2-.4 4.5-.2 6.6.7 1.9.8 3.5 2.2 4.6 3.9 1.4 2 2.2 4.4 2.3 6.9.1 2.6-.6 5.1-2 7.3-1.8 2.7-4.1 5-6.8 6.8-5.5 3.8-10 5.4-13.6 4.8-3.9-.6-7.1-2.6-9.4-5.5z"/></g></g></g></symbol><symbol id="icon-mail" viewBox="0 0 512 512">
<g>
	<g>
		<path d="M467,76H45C20.137,76,0,96.262,0,121v270c0,24.885,20.285,45,45,45h422c24.655,0,45-20.03,45-45V121
			C512,96.306,491.943,76,467,76z M460.698,106c-9.194,9.145-167.415,166.533-172.878,171.967c-8.5,8.5-19.8,13.18-31.82,13.18
			s-23.32-4.681-31.848-13.208C220.478,274.284,64.003,118.634,51.302,106H460.698z M30,384.894V127.125L159.638,256.08L30,384.894z
			 M51.321,406l129.587-128.763l22.059,21.943c14.166,14.166,33,21.967,53.033,21.967c20.033,0,38.867-7.801,53.005-21.939
			l22.087-21.971L460.679,406H51.321z M482,384.894L352.362,256.08L482,127.125V384.894z"/>
	</g>
</g>
<g>
</g>
<g>
</g>
<g>
</g>
<g>
</g>
<g>
</g>
<g>
</g>
<g>
</g>
<g>
</g>
<g>
</g>
<g>
</g>
<g>
</g>
<g>
</g>
<g>
</g>
<g>
</g>
<g>
</g>
</symbol><symbol id="icon-map" viewBox="0 0 512 512"><path d="M344 152a88 88 0 10-176 0 88 88 0 00176 0zm-144 0a56 56 0 11112 0 56 56 0 01-112 0z"/><path d="M511 491l-64-200c-1-5-6-9-11-11l-65-16c21-35 37-74 37-112a152 152 0 00-304 0c0 38 16 77 37 112l-65 16c-5 2-10 6-11 11L1 491a16 16 0 0019 21l124-31 108 30h8l108-30 124 31a16 16 0 0019-21zM240 383v92l-78-22 22-130c23 29 46 51 56 60zm32 0c10-9 33-31 56-60l22 130-78 22zM256 32c66 0 120 54 120 120 0 79-89 172-120 202-31-30-120-123-120-202 0-66 54-120 120-120zM93 309l63-16-26 158-90 23zm289 142l-26-158 63 16 53 165z"/></symbol><symbol id="icon-phone" viewBox="0 0 25 25"><path stroke="#B78544" stroke-linecap="round" stroke-linejoin="round" stroke-width="2.1" d="M23 17.6v3a2 2 0 01-2.3 2 19.8 19.8 0 01-14.6-9.1 19.8 19.8 0 01-3-8.7 2 2 0 012-2.1h3a2 2 0 012 1.7c0 1 .3 1.9.6 2.8a2 2 0 01-.4 2L9 10.7a16 16 0 006 6l1.3-1.3a2 2 0 012-.5c1 .4 2 .6 2.9.7a2 2 0 011.7 2z"/></symbol><symbol id="icon-photo" viewBox="0 0 50 50"><path stroke="inherit" stroke-width=".6" d="M18.8 6h-.2 0l-4.1 4.1h-4a6.6 6.6 0 00-6.6 6.6v18.7a6.5 6.5 0 006.5 6.6h27.1a6.5 6.5 0 006.6-6.6V16.7a6.6 6.6 0 00-6.6-6.6h-4l-4.1-4-.1-.1H18.8zm-3.4 6.8h.2l4.1-4.2h8.5l4 4.1.1.1h5.2a3.9 3.9 0 013.9 3.9v18.7a3.9 3.9 0 01-3.9 3.9h-27a3.9 3.9 0 01-4-3.9V16.7a3.9 3.9 0 014-3.9h5zm15.4 6.4a9.7 9.7 0 10-13.7 13.7 9.7 9.7 0 0013.7-13.7zM19 21.1A7 7 0 1129 31 7 7 0 0119 21z"/></symbol><symbol id="icon-pin" viewBox="0 0 25 25">
<g clip-path="url(#clip0)">
<path d="M21.943 10.6841C21.943 17.6779 12.951 23.6726 12.951 23.6726C12.951 23.6726 3.95898 17.6779 3.95898 10.6841C3.95898 8.2993 4.90635 6.01215 6.59268 4.32583C8.279 2.63951 10.5661 1.69214 12.951 1.69214C15.3358 1.69214 17.6229 2.63951 19.3093 4.32583C20.9956 6.01215 21.943 8.2993 21.943 10.6841Z" stroke="#B78544" stroke-width="1.99822" stroke-linecap="round" stroke-linejoin="round"/>
<path d="M12.9505 13.6814C14.6058 13.6814 15.9478 12.3395 15.9478 10.6841C15.9478 9.02872 14.6058 7.68677 12.9505 7.68677C11.2951 7.68677 9.95312 9.02872 9.95312 10.6841C9.95312 12.3395 11.2951 13.6814 12.9505 13.6814Z" stroke="#B78544" stroke-width="1.99822" stroke-linecap="round" stroke-linejoin="round"/>
</g>

</symbol><symbol id="icon-plus" viewBox="0 0 16 16">
<path fill-rule="evenodd" clip-rule="evenodd" d="M7.94031 0.3302C8.1615 0.3302 8.34082 0.509516 8.34082 0.730714L8.34082 15.1492C8.34082 15.3704 8.1615 15.5497 7.94031 15.5497C7.71911 15.5497 7.53979 15.3704 7.53979 15.1492L7.53979 0.730714C7.53979 0.509516 7.71911 0.3302 7.94031 0.3302Z" fill="white"/>
<path fill-rule="evenodd" clip-rule="evenodd" d="M7.9397 0.200073C8.2327 0.200073 8.47021 0.437592 8.47021 0.730587L8.47021 15.1491C8.47021 15.4421 8.2327 15.6796 7.9397 15.6796C7.64671 15.6796 7.40919 15.4421 7.40919 15.1491L7.40919 0.730587C7.40919 0.437592 7.64671 0.200073 7.9397 0.200073ZM8.34021 0.730587C8.34021 0.509389 8.1609 0.330073 7.9397 0.330073C7.7185 0.330073 7.53919 0.509389 7.53919 0.730587L7.53919 15.1491C7.53919 15.3703 7.7185 15.5496 7.9397 15.5496C8.1609 15.5496 8.34021 15.3703 8.34021 15.1491L8.34021 0.730587Z" fill="white"/>
<path fill-rule="evenodd" clip-rule="evenodd" d="M15.5498 7.94022C15.5498 8.16141 15.3705 8.34073 15.1493 8.34073L0.730804 8.34073C0.509607 8.34073 0.330292 8.16141 0.330292 7.94021C0.330292 7.71902 0.509607 7.5397 0.730805 7.5397L15.1493 7.5397C15.3705 7.5397 15.5498 7.71902 15.5498 7.94022Z" fill="white"/>
<path fill-rule="evenodd" clip-rule="evenodd" d="M15.6797 7.93991C15.6797 8.23291 15.4422 8.47043 15.1492 8.47043L0.730688 8.47043C0.437695 8.47043 0.200174 8.23291 0.200174 7.93991C0.200174 7.64692 0.437695 7.4094 0.730688 7.4094L15.1492 7.4094C15.4422 7.4094 15.6797 7.64692 15.6797 7.93991ZM15.1492 8.34043C15.3704 8.34043 15.5497 8.16111 15.5497 7.93991C15.5497 7.71872 15.3704 7.5394 15.1492 7.5394L0.730688 7.5394C0.509491 7.5394 0.330175 7.71872 0.330175 7.93991C0.330175 8.16111 0.509491 8.34043 0.730688 8.34043L15.1492 8.34043Z" fill="white"/>
</symbol><symbol id="icon-search" viewBox="0 0 30 30"><path stroke="#B78544" stroke-linecap="round" stroke-linejoin="round" stroke-width="2" d="M13.75 23.75a10 10 0 100-20 10 10 0 000 20zM26.25 26.25l-5.44-5.44"/></symbol><symbol id="icon-stage1" viewBox="0 0 78 78"><g fill="#242424"><path d="M3.9 78h70.2a3.9 3.9 0 002.7-6.6L6.7 1.2A3.8 3.8 0 002.4.3C1 1 0 2.3 0 4v70.2c0 2.2 1.7 3.9 3.9 4zm-1.3-3.9v-3.9h5.2v5.2H3.9c-.7 0-1.3-.6-1.3-1.3zm.8-71.4h.5c.4 0 .7 0 1 .3L75 73.2a1.3 1.3 0 01-1 2.2h-9v-3.9a1.3 1.3 0 00-2.6 0v4h-5.2v-2.7a1.3 1.3 0 00-2.6 0v2.6h-5.2v-3.9a1.3 1.3 0 00-2.6 0v4h-5.2v-2.7a1.3 1.3 0 00-2.6 0v2.6h-5.2v-3.9a1.3 1.3 0 00-2.6 0v4H26v-2.7a1.3 1.3 0 00-2.6 0v2.6h-5.2v-3.9a1.3 1.3 0 00-2.6 0v4h-5.2v-5.3c0-1.4-1.2-2.6-2.6-2.6H2.6v-5.2h3.9a1.3 1.3 0 000-2.6H2.6v-5.2h2.6a1.3 1.3 0 100-2.6H2.6v-5.2h3.9a1.3 1.3 0 000-2.6H2.6V39h2.6a1.3 1.3 0 100-2.6H2.6v-5.2h3.9a1.3 1.3 0 000-2.6H2.6v-5.2h2.6a1.3 1.3 0 100-2.6H2.6v-5.2h3.9a1.3 1.3 0 000-2.6H2.6V4c0-.6.3-1 .8-1.3z"/><path d="M13 66.3h40.3a1.3 1.3 0 001-2.2L13.8 23.8a1.3 1.3 0 00-2.2 1V65c0 .7.6 1.3 1.3 1.3zm1.3-38.5l35.9 36H14.3v-36zM72.6 38.2L41.6 7l-.6-.3L27.3 2 25.6.4a1.3 1.3 0 00-1.8 1.8L25.4 4l4.8 13.7c0 .2.2.4.3.5l31 31 3.7 3.7a6 6 0 004.2 1.8 5 5 0 003.5-1.4l3.7-3.7a5 5 0 001.4-3.9 6 6 0 00-1.8-3.8l-3.6-3.6zm-12 6.4l3.7-3.7 3.7-3.7 1.8 1.9-7.3 7.3-1.9-1.8zM33.2 17.2l2.8-2.7 8 8a1.3 1.3 0 101.8-1.9l-8-8 2.8-2.7 25.5 25.5-2.7 2.8-13.8-13.8a1.3 1.3 0 10-1.9 1.8L61.5 40l-2.7 2.8-25.6-25.6zm5-8.6L32 14.8l-3.4-9.5 9.6 3.3zm36.5 39l-3.6 3.8A3 3 0 0167 51l-2.7-2.7 7.3-7.4 2.7 2.7c.6.6 1 1.4 1 2.2.2.7 0 1.4-.6 1.9z"/></g></symbol><symbol id="icon-stage2" viewBox="0 0 80 80"><path fill="#242424" d="M78.7 2.7a1.3 1.3 0 100-2.7H44.2c-1.3 0-2.6.5-3.6 1.4L2.2 36A6.7 6.7 0 000 41v4.2a1.3 1.3 0 102.7 0V41A4 4 0 014 38l5.3-4.8V64h-8a1.3 1.3 0 100 2.7h1.4v10.6c0 1.5 1.2 2.7 2.6 2.7h72c1.5 0 2.7-1.2 2.7-2.7V26.7c0-1.5-1.2-2.7-2.7-2.7h-8V2.7h9.4zm-34.5 0h9.1V24h-8a1.3 1.3 0 000 2.7h1.4V36c0 .7-.6 1.3-1.4 1.3h-4v-33l1.1-1c.5-.4 1.1-.6 1.8-.6zM33.3 37.3h-2.6a1.3 1.3 0 000 2.7H32v9.3c0 .8-.6 1.4-1.3 1.4h-4V17.6l12-10.9v30.6h-5.4zM12 30.8L24 20v30.7h-8a1.3 1.3 0 000 2.6h1.3v9.4c0 .7-.6 1.3-1.3 1.3h-4V30.8zm41.3 46.5V44c0-.7.6-1.3 1.4-1.3h16c.7 0 1.3.6 1.3 1.3v33.3H53.3zm24 0h-2.6V44a4 4 0 00-4-4h-16a4 4 0 00-4 4v33.3H5.3V66.7H16a4 4 0 004-4v-9.4h10.7a4 4 0 004-4V40h10.6a4 4 0 004-4v-9.3H77.3v50.6zM66.7 24H56V2.7h10.7V24z"/></symbol><symbol id="icon-stage3" viewBox="0 0 84 84"><path fill="#242424" d="M83.2 11.4c-.5-.3-1-.2-1.5.1L59 29a2.8 2.8 0 00-.7 3.7l-3.6 1-5.2-2.3h-.3c-5-1-7.7-.1-9 1H25.9c.5-1.2.1-2.6-.9-3.4L2.3 11.5A1.4 1.4 0 000 12.6v33.6c0 .5.3 1 .7 1.2l8.7 5a2.8 2.8 0 003.3-.4l1.6 1.3a4.2 4.2 0 004 6.7c0 1 .4 2 1 2.7a4.9 4.9 0 003.8 1.7 4.1 4.1 0 005.7 3.7 4.1 4.1 0 004 3 4 4 0 002.6-.9l2.2-1.7 5.2 3.5a4.9 4.9 0 003.7.7 4.9 4.9 0 003.9-4.3 4.8 4.8 0 006.2-4.3 4.9 4.9 0 006.3-5.4 4.8 4.8 0 004.1-6.1l2.8-2.8 1.1 1.7a2.8 2.8 0 003.7.9l8.7-5c.4-.2.7-.7.7-1.2V12.6c0-.5-.3-1-.8-1.2zm-80.4 34v-30l15.6 12L5.6 47l-2.8-1.6zm8 4.6L8 48.4l12.7-19.3 2.6 2L10.8 50zm7.7 7c-.3.2-.7.3-1 .2a1.4 1.4 0 01-.9-2.3l3.5-2.7a1.4 1.4 0 011-.4 1.4 1.4 0 01.9 2.4L18.5 57zm4.4 4.6a2.1 2.1 0 01-1.2-3.6l4.4-3.4a2.1 2.1 0 012.8 3l-1.2 1-3.2 2.5a2 2 0 01-1.6.5zm7.2 2.2l-1.9 1.5A1.4 1.4 0 0126 64c0-.3.1-.7.4-.9l3.3-2.6 1-.7 1-.8a1.4 1.4 0 011-.3 1.4 1.4 0 01.8 2.4l-3.3 2.5H30zm7 1.5L33.8 68c-.3.3-.7.4-1 .3a1.4 1.4 0 01-.9-2.3h.1l3.4-2.7a1.4 1.4 0 011.9 2zm27-10.3c-.7 1-2 1.3-3 .6L52 49.3a1.4 1.4 0 10-1.6 2.3l8.9 6.1a2 2 0 01-2.3 3.5L47.8 55a1.4 1.4 0 00-1.6 2.3l6.7 4.6c1 .7 1.2 2 .6 3a2 2 0 01-2.9.6l-2.5-1.7-2.5-1.8a1.4 1.4 0 10-1.6 2.3l2.6 1.8.3.3a2.1 2.1 0 01-2.6 3.3l-4.6-3a4.1 4.1 0 00-3-6.4 4.1 4.1 0 00-4.4-4.2 4.9 4.9 0 00-7.3-4 4.2 4.2 0 00-6.6-2l-2 1.5-2.1-1.8L24 35h12.3a4 4 0 002 7c2.6.4 5.2 0 7.6-1l3.6 2.2.2.1 13.7 8.8c.2.2.5.4.6.7.4.8.4 1.6 0 2.2zm1.4-4.8a5 5 0 00-.5-.4l-13.8-9H51l-4.2-2.6c-.4-.3-1-.3-1.4 0a11 11 0 01-6.6 1c-.5 0-.9-.4-1-1 0-.5.2-1 .7-1.3a16.1 16.1 0 003.1-2.2l.2-.2c.4-.3 2.1-1.4 6.7-.5l5.6 2.3c.2.1.6.2.9 0l5-1.3 8.2 12.5-2.7 2.7zm7.7-.2L60.7 31l2.6-2L76 48.4 73.2 50zm8-4.6L78.4 47 65.6 27.4l15.6-12v30z"/></symbol><symbol id="icon-stage4" viewBox="0 0 78 78"><g fill="#242424"><path d="M9.1 78h39c5 0 9-4 9.1-9.1v-52c0-5-4-9.1-9.1-9.1h-5.4c-.6-1.6-2-2.6-3.7-2.6h-1.3V3.9C37.7 1.7 36 0 33.8 0H23.4a3.9 3.9 0 00-3.9 3.9v1.3h-1.3c-1.6 0-3.1 1-3.7 2.6H9.1c-5 0-9 4-9.1 9.1v52c0 5 4 9 9.1 9zm11.7-59.8h15.6c2 0 4-1 5.2-2.6H48c.7 0 1.3.6 1.3 1.3v52c0 .7-.6 1.3-1.3 1.3h-39c-.7 0-1.3-.6-1.3-1.3v-52c0-.7.6-1.3 1.3-1.3h6.5a6.5 6.5 0 005.2 2.6zm1.3-14.3c0-.7.6-1.3 1.3-1.3h10.4c.7 0 1.3.6 1.3 1.3v1.3h-13V3.9zm-5.2 5.2c0-.7.6-1.3 1.3-1.3H39c.7 0 1.3.6 1.3 1.3v2.6c0 2.2-1.7 3.9-3.9 3.9H20.8a3.9 3.9 0 01-3.9-3.9V9.1zM2.6 16.9c0-3.6 3-6.5 6.5-6.5h5.2v1.3l.1 1.3H9.1a3.9 3.9 0 00-3.9 3.9v52c0 2.1 1.8 3.9 3.9 3.9h39c2.2 0 3.9-1.8 3.9-4V17c0-2.2-1.7-3.9-3.9-3.9h-5.3l.1-1.3v-1.3h5.2c3.6 0 6.5 3 6.5 6.5v52c0 3.6-3 6.5-6.5 6.5h-39c-3.6 0-6.5-3-6.5-6.5v-52z"/><path fill-rule="evenodd" d="M26 11.7h5.2a1.3 1.3 0 000-2.6H26a1.3 1.3 0 100 2.6z" clip-rule="evenodd"/><path d="M72.8 0h-2.6A5.2 5.2 0 0065 5.2v2l-3.6 2.7a4 4 0 00-1.6 3.1v26a1.3 1.3 0 102.6 0V13c0-.4.2-.8.5-1l2.1-1.6v22.1c0 .7.6 1.3 1.3 1.3v34.6c0 .5 0 1 .3 1.4l2.5 6.5a2.6 2.6 0 004.8 0l2.5-6.5c.2-.4.3-.9.3-1.4V33.8c.7 0 1.3-.6 1.3-1.3V5.2C78 2.3 75.7 0 72.8 0zm-5.2 5.2c0-1.4 1.2-2.6 2.6-2.6h2.6c1.4 0 2.6 1.2 2.6 2.6v26h-7.8v-26zm3.9 70.2l-2-5.2h4l-2 5.2zm2.6-7.8h-5.2V33.8h5.2v33.8z"/><path fill-rule="evenodd" d="M14.3 31.2h15.6a1.3 1.3 0 000-2.6H14.3a1.3 1.3 0 100 2.6zM36.8 32.1c.5.5 1.3.5 1.8 0l5.2-5.2a1.3 1.3 0 00-1.8-1.8l-4.3 4.3-1.7-1.7a1.3 1.3 0 00-1.8 1.8l2.6 2.6zM14.3 44.2h15.6a1.3 1.3 0 000-2.6H14.3a1.3 1.3 0 100 2.6zM14.3 57.2h15.6a1.3 1.3 0 000-2.6H14.3a1.3 1.3 0 100 2.6zM36.8 45.1c.5.5 1.3.5 1.8 0l5.2-5.2a1.3 1.3 0 00-1.8-1.8l-4.3 4.3-1.7-1.7a1.3 1.3 0 00-1.8 1.8l2.6 2.6z" clip-rule="evenodd"/><path d="M36.4 61h5.2c1.4 0 2.6-1 2.6-2.5v-5.2c0-1.4-1.2-2.6-2.6-2.6h-5.2a2.6 2.6 0 00-2.6 2.6v5.2c0 1.4 1.2 2.6 2.6 2.6zm0-7.7h5.2v5.2h-5.2v-5.2z"/></g></symbol><symbol id="icon-stage5" viewBox="0 0 78 78"><path fill="#242424" d="M52 47.7a5.2 5.2 0 003.7-8.8c-2-2-5.3-2-7.3 0a5.2 5.2 0 003.6 8.8zm-1.8-7a2.6 2.6 0 113.7 3.7 2.6 2.6 0 01-3.7-3.7z"/><path fill="#242424" d="M2.6 77.6h72.8c1.4 0 2.6-1.1 2.6-2.6V63.3c0-1.4-1.2-2.6-2.6-2.6h-6V60l.8-.2a2.7 2.7 0 002.6-3.2V56c.1-.2.4-.3.6-.3.7-.3 1.4-.8 1.8-1.4.3-.8.3-1.6 0-2.4v-.6l.4-.3c.7-.4 1.3-1 1.6-1.8 0-.8 0-1.6-.5-2.3l-.2-.6.4-.4c.6-.6 1-1.3 1.1-2 0-.9-.3-1.6-.9-2.2l-.4-.5.4-.6c.4-.6.7-1.4.6-2.2-.2-.8-.6-1.5-1.3-2-.2 0-.3-.2-.5-.4l.2-.5c.4-.8.4-1.6.2-2.4-.3-.7-1-1.3-1.7-1.6-.2 0-.3-.2-.5-.3v-.6c.2-.8.1-1.6-.3-2.3-.5-.6-1.2-1-2-1.2l-.5-.2-.1-.6c0-.8-.3-1.6-.8-2.2-.6-.6-1.4-.8-2.2-.8h-.6l-.2-.7a8 8 0 00-.3-.8l2.8-2.7a2.6 2.6 0 00-.4-4c-6.9-4.4-15.1-6-23.1-4.6l-1.2-1.3a4.6 4.6 0 00-1.1-9c-1.6 0-3.2.3-4.8.7A42.5 42.5 0 009.5 29.4c-1 3-1.7 6.1-2 9.3H2.5A2.6 2.6 0 000 41.3V75c0 1.5 1.2 2.6 2.6 2.6zm72.8-10.4H63.7a1.3 1.3 0 000 2.6h11.7V75H2.6V63.4H37l.9 1c.7.3 1.5.4 2.3.3h.6l.3.4c.3.8.9 1.4 1.6 1.7.8.3 1.6.2 2.4-.2l.5-.1.4.4c.5.7 1.2 1.1 2 1.3.8 0 1.6-.1 2.2-.6l.5-.4.6.4a3.4 3.4 0 002.1 1c.8-.2 1.5-.6 2-1.2l.4-.4.7.2c.7.5 1.5.6 2.3.5.7-.3 1.3-.8 1.7-1.5l.4-.5h.6c.8.3 1.6.3 2.3 0 .7-.4 1.2-1 1.5-1.8l.2-.6h9.9v4zM16.5 40c.2-2.6.8-5.1 1.6-7.6A33.2 33.2 0 0135.3 12l1.7 1.9A32.7 32.7 0 0024.6 60l.7.7H17V41.3c0-.5-.1-1-.4-1.4zm15 17.7c.2.2.4.2.7.3l.6.2v.6c0 .7.3 1.4.7 2h-5.2l.3-.3 2.8-2.8zM66 25.3c.5.5 1.3.7 2 .7h.5l.1.6c0 .7.2 1.4.6 2 .5.6 1.2 1 1.9 1l.5.2v.6c-.2.7-.1 1.4.2 2.1.3.6.9 1.1 1.6 1.4l.4.3-.1.5c-.3.7-.4 1.4-.3 2.1.3.7.7 1.3 1.3 1.7l.4.4-.3.5c-.4.6-.6 1.3-.7 2 .1.7.4 1.4 1 2l.2.4-.3.4c-.6.5-1 1.1-1.1 1.8 0 .7.1 1.5.5 2l.2.6-.4.3c-.7.4-1.2 1-1.5 1.6-.2.7-.2 1.4 0 2l.1.6-.4.3a2.9 2.9 0 00-2.2 3.3v.5a6 6 0 01-.5.2 2.9 2.9 0 00-2.9 2.8v.5h-.6c-1.5-.3-3 .7-3.3 2.2l-.3.5-.5-.2c-.7-.2-1.4-.2-2.1 0-.7.3-1.2.8-1.6 1.5l-.3.4-.5-.2c-1.3-.9-3-.6-4 .6a7 7 0 01-.3.4l-.5-.4c-.5-.4-1.2-.8-2-.8-.6 0-1.4.2-2 .6l-.4.3-.4-.4c-.4-.6-1-1-1.7-1.3-.7-.1-1.4 0-2 .3l-.6.2-.3-.5c-.3-.7-.8-1.2-1.4-1.6-.7-.3-1.4-.4-2.1-.2h-.6l-.2-.5c-.1-.7-.5-1.3-1-1.8-.6-.5-1.3-.7-2-.7a6 6 0 01-.6 0v-.6c0-.7-.3-1.4-.7-2a3 3 0 00-1.3-.9l3.5-3.5c.7-.7 1-1.7.7-2.6l-1-3.5c-.4-1.3 0-2.8 1-3.8l14-14c1-1 2.5-1.4 3.8-1l3.5 1c1 .2 1.9 0 2.6-.7L65 24c.1.5.4 1 .9 1.3zM52 12.7c5.7 0 11.2 1.6 16 4.6l-8.4 8.4-3.4-1c-2.3-.7-4.8 0-6.4 1.6l-14 14a6.5 6.5 0 00-1.7 6.5l1 3.4-4.7 4.8-3.7 3.6a29.9 29.9 0 0125.3-46zm-12.6 0l-1.6-1.8c1.4-.5 2.8-1 4.2-1.2l1.4 1.6c-1.4.3-2.7.8-4 1.3zM12 30.1A39.9 39.9 0 0139.9 3.5a24 24 0 014.3-.6c.5 0 1 .2 1.3.5a2 2 0 01-1.2 3.4A28.2 28.2 0 0035 9.2c-6.5 2.8-14.9 9-19.4 22.3-.8 2.3-1.4 4.7-1.7 7.2h-4c.4-3 1-5.7 2-8.5zM9 41.2V44a1.3 1.3 0 002.6 0v-2.6h2.6v19.4h-2.6V49.1a1.3 1.3 0 10-2.6 0v11.6H2.6V41.3h6.5z"/><path fill="#242424" d="M40.3 67.2H22.1a1.3 1.3 0 000 2.6h18.2a1.3 1.3 0 000-2.6zM66.8 47.6a1.3 1.3 0 102.4 1c2.8-7-1.2-13.9-1.4-14.1a1.3 1.3 0 00-2.2 1.3s3.5 6 1.2 11.8zM57.1 56c-5.8 2.3-11.8-1.2-11.8-1.2a1.3 1.3 0 00-1.4 2.2c2.8 1.6 5.8 2.4 9 2.4 1.7 0 3.5-.3 5.2-1a1.3 1.3 0 10-1-2.4z"/></symbol><symbol id="icon-stage6" viewBox="0 0 76 76"><g fill="#242424"><path d="M8.9 8.9c-.7 0-1.3.5-1.3 1.2v15.2a1.3 1.3 0 002.5 0V10.1C10.1 9.4 9.6 9 9 9zM8.9 29.1c-.7 0-1.3.6-1.3 1.3v2.5a1.3 1.3 0 002.5 0v-2.5c0-.7-.5-1.3-1.2-1.3z"/><path d="M64.6 11.4H39.3c-1.6 0-3 1-3.6 2.5h-5.3a5 5 0 00-4.9 3.8h-2.7a3.8 3.8 0 00-3.8 3.8h-3.8v-19c0-1.4-1.1-2.5-2.5-2.5H2.5A2.5 2.5 0 000 2.5v71C0 74.9 1.1 76 2.5 76h10.2c1.4 0 2.5-1.1 2.5-2.5V24H19c0 2 1.7 3.8 3.8 3.8h2.7a5 5 0 004.9 3.8h5.3c.5 1.5 2 2.5 3.6 2.5h1.4c.3 1.8.1 3.7-.5 5.4a2.5 2.5 0 002.4 3.5h4.6l-2.6 12.6h-5.3a6.3 6.3 0 00-6 4.3 2.4 2.4 0 00.9 2.8V71a5 5 0 005 5.1h22.9a5 5 0 005-5v-8.2c.3-.1.5-.3.6-.5.5-.7.6-1.5.4-2.3a6.3 6.3 0 00-6-4.3h-1l4.5-21.6a11.4 11.4 0 00-1-22.7zm-57 62v-19a1.3 1.3 0 10-2.5 0v19H2.5V2.6h10.2v71H7.6zm14-49.3v-2.6c0-.7.5-1.2 1.2-1.2h2.5v5h-2.5c-.7 0-1.3-.5-1.3-1.2zm6.3 2.5V19c0-1.4 1.1-2.5 2.5-2.5h5V29h-5a2.5 2.5 0 01-2.5-2.5zm14.7 14c.7-2 1-4.3.7-6.4H49l-1.3 6.3h-5.2zM62 73.5H39.3a2.5 2.5 0 01-2.6-2.6v-7.6h8.9v3.8c0 1.4 1.1 2.6 2.5 2.6h5.1c1.4 0 2.5-1.2 2.5-2.6v-3.8h8.9V71c0 1.4-1.1 2.6-2.5 2.6zM48 63.3h5.1v3.8h-5v-3.8zm17.5-2.5h-30c.6-1.5 2-2.5 3.7-2.5H62c1.6 0 3 1 3.5 2.5zm-7.1-5H47.2l4.5-21.6H63l-4.5 21.5zm6.1-24.1H39.3c-.7 0-1.3-.6-1.3-1.3V15.2c0-.7.6-1.3 1.3-1.3h25.3a8.9 8.9 0 110 17.8z"/><path d="M33 20.3a1.3 1.3 0 11-2.6 0 1.3 1.3 0 012.5 0zM60.8 19h5a1.3 1.3 0 000-2.5h-5a1.3 1.3 0 100 2.5zM68.4 21.5h-7.6a1.3 1.3 0 100 2.6h7.6a1.3 1.3 0 000-2.6zM65.9 26.6h-5.1a1.3 1.3 0 100 2.5h5a1.3 1.3 0 000-2.5zM25.3 7.8c0-.4 0-.7-.2-1L20 .5A1.3 1.3 0 0018 2l4.2 5.2-2.7 2a1.3 1.3 0 00-.1 2l3.8 3.6a1.3 1.3 0 101.7-1.9l-2.7-2.5 2.6-1.9c.3-.2.5-.5.5-.8zM18.2 45.3a1.3 1.3 0 001.8-.2l5-6.3a1.3 1.3 0 00-.2-1.8L22.2 35l2.7-2.5a1.3 1.3 0 10-1.7-1.8l-3.8 3.6a1.3 1.3 0 00.1 2l2.7 1.9-4.2 5.2c-.4.6-.3 1.4.2 1.8z"/></g></symbol><symbol id="icon-success" viewBox="0 0 104 104"><circle cx="52" cy="52" r="52" fill="#B78544"/><circle cx="52" cy="52" r="46" stroke="#fff" stroke-width="2"/><path stroke="#fff" stroke-linecap="round" stroke-linejoin="round" stroke-width="2" d="M70 38L46 63 35 52"/></symbol><symbol id="icon-telegram" viewBox="0 0 300 300">
<g id="XMLID_496_">
	<path id="XMLID_497_" d="M5.299,144.645l69.126,25.8l26.756,86.047c1.712,5.511,8.451,7.548,12.924,3.891l38.532-31.412
		c4.039-3.291,9.792-3.455,14.013-0.391l69.498,50.457c4.785,3.478,11.564,0.856,12.764-4.926L299.823,29.22
		c1.31-6.316-4.896-11.585-10.91-9.259L5.218,129.402C-1.783,132.102-1.722,142.014,5.299,144.645z M96.869,156.711l135.098-83.207
		c2.428-1.491,4.926,1.792,2.841,3.726L123.313,180.87c-3.919,3.648-6.447,8.53-7.163,13.829l-3.798,28.146
		c-0.503,3.758-5.782,4.131-6.819,0.494l-14.607-51.325C89.253,166.16,91.691,159.907,96.869,156.711z"/>
</g>
<g>
</g>
<g>
</g>
<g>
</g>
<g>
</g>
<g>
</g>
<g>
</g>
<g>
</g>
<g>
</g>
<g>
</g>
<g>
</g>
<g>
</g>
<g>
</g>
<g>
</g>
<g>
</g>
<g>
</g>
</symbol><symbol id="icon-video" viewBox="0 0 50 50"><path fill-rule="evenodd" d="M0 15.6a6.2 6.2 0 016.3-6.2h23.4a6.2 6.2 0 016.2 5.4l9.7-4.3a3.1 3.1 0 014.4 2.8v23.4a3.1 3.1 0 01-4.4 2.8L36 35.2a6.2 6.2 0 01-6.2 5.4H6.3A6.3 6.3 0 010 34.4V15.6zm36 16.2l10.9 4.9V13.3l-11 4.9v13.6zM6.1 12.5a3.1 3.1 0 00-3 3.1v18.8a3.1 3.1 0 003 3.1h23.5a3.1 3.1 0 003.1-3.1V15.6a3.1 3.1 0 00-3.1-3.1H6.3z" clip-rule="evenodd"/></symbol><symbol id="icon-vk" viewBox="0 0 51 50"><g><path stroke="#B78544" stroke-width="2.8" d="M47.5 12c.3-1.2 0-2-1.6-2h-5c-1.4 0-2 .7-2.3 1.5 0 0-2.6 6.4-6.3 10.6-1.1 1.3-1.7 1.7-2.3 1.7-.4 0-.9-.4-.9-1.5V11.9c0-1.3-.3-1.9-1.4-1.9h-8c-.8 0-1.3.6-1.3 1.2 0 1.3 1.8 1.5 2 5V24c0 1.7-.3 2-1 2-1.7 0-5.9-6.5-8.4-14-.5-1.4-1-2-2.3-2h-5c-1.5 0-1.8.7-1.8 1.5 0 1.4 1.7 8.2 8 17.3 4.3 6.2 10.2 9.5 15.6 9.5 3.3 0 3.7-.7 3.7-2v-4.7c0-1.5.3-1.8 1.3-1.8.8 0 2 .4 5 3.4 3.5 3.5 4.1 5.1 6 5.1h5.2c1.4 0 2.2-.7 1.7-2.2-.4-1.5-2-3.6-4.3-6.1-1.2-1.4-3-3-3.5-3.8-.7-1-.5-1.4 0-2.3 0 0 6.2-9 6.9-12h0z" clip-rule="evenodd"/></g></symbol><symbol id="icon-world" viewBox="0 0 512 512"><path d="M512 120a104 104 0 00-183-67 232 232 0 10133 178c24-31 50-72 50-111zM328 248c-1-22-3-44-6-65 14 25 32 48 48 65zm-54 163c-12 33-28 53-42 53s-29-20-41-53l-10-31c33-5 69-5 102 0l-9 31zM33 280h103c1 26 3 51 7 74-27 7-51 16-72 28-22-29-35-64-38-102zm37-134c22 12 46 21 73 28-4 23-6 48-7 74H33c3-37 16-72 37-102zm79 240c6 23 15 49 27 70-32-9-61-27-84-49 17-9 36-16 57-21zm26-38c-4-21-6-44-7-68h128c-1 24-3 47-6 68-38-5-78-5-115 0zm-7-100c1-24 3-47 7-68 38 5 78 5 115 0 3 21 5 44 6 68zm23-131c12-33 28-53 41-53s30 20 42 53l9 31c-33 5-68 5-102 0l10-31zm217-69c40 0 72 32 72 72 0 42-45 96-72 122-27-26-72-80-72-122 0-40 32-72 72-72zm-103 61c-5-13-10-26-17-37l24 9c-4 8-6 18-7 28zM176 72c-12 21-21 47-27 71-21-6-40-13-57-22 24-23 53-40 84-49zm112 384c12-21 21-47 27-70 21 5 40 12 57 21-23 23-52 40-84 49zm106-74c-21-12-46-21-73-28 4-23 6-48 7-74h103c-3 37-16 72-37 102z"/><circle cx="408.1" cy="120" r="32"/></symbol><symbol id="icon-youtube" viewBox="0 0 80 80"><g><path fill="red" d="M78 21c-1-4-3-6-7-7-6-2-31-2-31-2s-25 0-31 2c-4 1-6 3-7 7-2 6-2 19-2 19s0 13 2 19c1 4 3 6 7 7 6 2 31 2 31 2s25 0 31-2c4-1 6-3 7-7 2-6 2-19 2-19s0-13-2-19z"/><path fill="#fff" d="M32 52l21-12-21-12v24z"/></g></symbol></svg>