<svg fill="none" viewBox="0 0 260 38"><defs/><g><path fill="#fff" d="M52 15h7.9v1.4l-2.8.4 4 13.5.9 4 1-4 3.3-11-.8-2.5-2-.4V15h8.1v1.4l-2.9.4 4 13.5 1 4.4.8-4.4L78 16.8l-2.8-.4V15h6.9v1.4l-2 .4-5.7 20h-2.9L67.2 22l-4.3 14.6H60L54 16.8l-1.9-.4V15zM91.8 36.9a9 9 0 01-5-1.4 8.5 8.5 0 01-3.1-3.8c-.7-1.7-1-3.6-1-5.8 0-2.2.3-4.2 1.2-5.9.8-1.7 2-3 3.5-3.9 1.4-.9 3-1.4 5-1.4 3 0 5.3 1 6.8 3 1.7 1.8 2.5 4.4 2.5 7.8a13 13 0 01-1.3 6c-.9 1.7-2 3-3.6 4a9.3 9.3 0 01-5 1.4zm.4-20.7a5 5 0 00-4.5 2.5 13 13 0 00-1.6 7.2c0 3 .5 5.2 1.5 7a5 5 0 004.5 2.4 5 5 0 004.4-2.5c1.1-1.7 1.7-4 1.7-7.3 0-2.9-.6-5.2-1.6-6.8a5 5 0 00-4.4-2.5zM112.8 36.9a9 9 0 01-5-1.4 8.5 8.5 0 01-3.2-3.8c-.7-1.7-1-3.6-1-5.8 0-2.2.4-4.2 1.3-5.9a9.1 9.1 0 018.5-5.3c3 0 5.2 1 6.8 3 1.6 1.8 2.4 4.4 2.4 7.8 0 2.3-.4 4.3-1.3 6a9.3 9.3 0 01-8.6 5.4zm.3-20.7a5 5 0 00-4.4 2.5A13 13 0 00107 26c0 3 .5 5.2 1.5 7a5 5 0 004.5 2.4 5 5 0 004.4-2.5c1.1-1.7 1.7-4 1.7-7.3 0-2.9-.6-5.2-1.6-6.8a5 5 0 00-4.5-2.5zM127.3 16.8l-2.2-.4V15h3.8a40.4 40.4 0 005.1-.3c3.6 0 6.3 1 8 2.8 1.8 1.8 2.7 4.3 2.7 7.6 0 2.3-.5 4.3-1.4 6a10 10 0 01-9.4 5.7 40.2 40.2 0 01-5-.2h-4V35l2.4-.2V16.8zm3.1 18.1c.7.2 1.6.3 2.6.3h1a7 7 0 003.8-1.1 7 7 0 002.6-3.2 13 13 0 00.9-5.2c0-3.1-.7-5.4-2-7-1.3-1.6-3.3-2.4-6-2.4a20.6 20.6 0 00-2.9.2V35zM154 36.9c-1 0-1.8-.1-2.6-.3a33.6 33.6 0 01-4-1l.3-5.3h1.8l.5 3.8c.3.3.9.6 1.6.8.8.3 1.6.4 2.5.4 1.5 0 2.6-.3 3.3-1 .8-.7 1.2-1.6 1.2-2.7a3 3 0 00-.6-2c-.4-.5-1-1-1.7-1.4l-2.8-1.3-2.9-1.5a7.6 7.6 0 01-2-2c-.6-.9-1-1.9-1-3 0-1.2.3-2.1 1-3 .5-.8 1.3-1.5 2.4-2a12.1 12.1 0 016.1-.5 35.8 35.8 0 013.4.9l-.2 4.8h-1.8l-.6-3.5a3 3 0 00-1.2-.6 7 7 0 00-2-.3c-1.3 0-2.3.3-3 .9-.7.6-1 1.4-1 2.4 0 .8.2 1.5.6 2 .4.5 1 1 1.5 1.3l3 1.5a35 35 0 013 1.7c.9.4 1.6 1 2.1 1.9.6.8.9 1.7.9 2.8 0 1-.3 2-.9 3-.5.9-1.4 1.7-2.6 2.3-1.2.6-2.6.9-4.2.9zM171.3 16.5l-5 .2-1 6h-2l.6-7.7H182l.3 7.8h-1.8l-1-6.1-5-.2V35l4.2.2v1.5h-11.2V35l3.8-.2V16.5zM191.5 14.8h3.2l7 20 1.8.3v1.5h-7.7V35l2.5-.2-1.4-4.3h-8.5l-1.4 4.3 2.5.2v1.5h-6.9V35l1.8-.2 7-20.1zm1.8 4.6l-.7-2.5-.7 2.6-3 9.3h7.4l-3-9.4zM207.4 16.8l-2.7-.4V15h8.6v1.4l-2.7.4v18l2.7.4v1.4h-8.5V35l2.6-.2V16.8zM216.2 35.1l2.4-.2V16.8l-2.2-.4V15h3.8c.5 0 1.3 0 2.2-.2h2.3c2.8 0 4.8.4 6 1.3 1.3 1 1.9 2.4 1.9 4.4 0 1.3-.4 2.6-1.2 3.7-.8 1.2-1.8 2-3.1 2.4.6.3 1.2.9 1.7 1.7a39.3 39.3 0 013.3 5.7c.3.5.7.8 1 .9l1 .2v1.5h-4c-.2 0-.6-.4-1-1l-1.5-3.1a41 41 0 00-1.9-3.7c-.5-.9-1-1.5-1.5-1.7h-3.7v7.8l3 .2v1.5h-8.5V35zm9-9.6c1.2 0 2.2-.4 3-1.2.7-.8 1-2 1-3.6 0-1.5-.3-2.5-1-3.3-.8-.7-2-1.1-3.8-1.1a15 15 0 00-2.7.2v9h3.5zM243.8 36.9c-1 0-2-.1-2.7-.3a33.6 33.6 0 01-4-1l.3-5.3h1.9l.4 3.8 1.6.8c.8.3 1.6.4 2.5.4 1.5 0 2.6-.3 3.4-1 .7-.7 1.1-1.6 1.1-2.7a3 3 0 00-.6-2c-.4-.5-1-1-1.7-1.4l-2.8-1.3-2.8-1.5a7.6 7.6 0 01-2.1-2c-.6-.9-1-1.9-1-3 0-1.2.4-2.1 1-3 .5-.8 1.3-1.5 2.4-2a12.1 12.1 0 016.1-.5 35.6 35.6 0 013.4.9l-.2 4.8h-1.8l-.5-3.5a3 3 0 00-1.3-.6 7 7 0 00-2-.3c-1.3 0-2.3.3-3 .9-.7.6-1 1.4-1 2.4 0 .8.2 1.5.6 2 .4.5 1 1 1.6 1.3l3 1.5a35 35 0 013 1.7c.8.4 1.5 1 2 1.9.6.8 1 1.7 1 2.8 0 1-.4 2-1 3-.5.9-1.4 1.7-2.6 2.3-1.1.6-2.5.9-4.2.9z"/><g clip-path="url(#clip1)"><path fill="#B78544" d="M38.3 12.5a1 1 0 00-1.1.3l-8.5 10.4-7.9-9.7 3.5-4.3c.3-.4.3-1 0-1.3l-4-5a1 1 0 00-1.6 0l-4 5a1 1 0 000 1.3l3.5 4.3-8 9.7-8.4-10.4a1 1 0 00-1.1-.3 1 1 0 00-.7 1V36.6h.1v.2a1 1 0 00.5.4.9.9 0 00.2 0H38.3a1 1 0 00.4-.2l.1-.2.1-.1a1 1 0 00.1-.4V13.4a1 1 0 00-.7-1zM9 25l-6.8 8.4v-17L8.9 25zM3.2 35.2l7-8.7 7.2 8.7H3.2zm33.7-18.8v17l-6.8-8.5 6.8-8.5zm-17.4-4.6l-2.7-3.3 2.7-3.3 2.7 3.3-2.7 3.3zm0 3.3l8 9.8-8 9.7-8-9.7 8-9.8zm9.2 11.4l7.1 8.7H21.6l7.1-8.7z"/></g></g><defs><clipPath id="clip0"><rect width="260" height="38" fill="#fff"/></clipPath><clipPath id="clip1"><rect width="39" height="34.7" fill="#fff" transform="translate(0 2.6)"/></clipPath></defs></svg>
