<svg fill="none" viewBox="0 0 76 76"><defs/><g fill="#242424"><path d="M8.9 8.9c-.7 0-1.3.5-1.3 1.2v15.2a1.3 1.3 0 002.5 0V10.1C10.1 9.4 9.6 9 9 9zM8.9 29.1c-.7 0-1.3.6-1.3 1.3v2.5a1.3 1.3 0 002.5 0v-2.5c0-.7-.5-1.3-1.2-1.3z"/><path d="M64.6 11.4H39.3c-1.6 0-3 1-3.6 2.5h-5.3a5 5 0 00-4.9 3.8h-2.7a3.8 3.8 0 00-3.8 3.8h-3.8v-19c0-1.4-1.1-2.5-2.5-2.5H2.5A2.5 2.5 0 000 2.5v71C0 74.9 1.1 76 2.5 76h10.2c1.4 0 2.5-1.1 2.5-2.5V24H19c0 2 1.7 3.8 3.8 3.8h2.7a5 5 0 004.9 3.8h5.3c.5 1.5 2 2.5 3.6 2.5h1.4c.3 1.8.1 3.7-.5 5.4a2.5 2.5 0 002.4 3.5h4.6l-2.6 12.6h-5.3a6.3 6.3 0 00-6 4.3 2.4 2.4 0 00.9 2.8V71a5 5 0 005 5.1h22.9a5 5 0 005-5v-8.2c.3-.1.5-.3.6-.5.5-.7.6-1.5.4-2.3a6.3 6.3 0 00-6-4.3h-1l4.5-21.6a11.4 11.4 0 00-1-22.7zm-57 62v-19a1.3 1.3 0 10-2.5 0v19H2.5V2.6h10.2v71H7.6zm14-49.3v-2.6c0-.7.5-1.2 1.2-1.2h2.5v5h-2.5c-.7 0-1.3-.5-1.3-1.2zm6.3 2.5V19c0-1.4 1.1-2.5 2.5-2.5h5V29h-5a2.5 2.5 0 01-2.5-2.5zm14.7 14c.7-2 1-4.3.7-6.4H49l-1.3 6.3h-5.2zM62 73.5H39.3a2.5 2.5 0 01-2.6-2.6v-7.6h8.9v3.8c0 1.4 1.1 2.6 2.5 2.6h5.1c1.4 0 2.5-1.2 2.5-2.6v-3.8h8.9V71c0 1.4-1.1 2.6-2.5 2.6zM48 63.3h5.1v3.8h-5v-3.8zm17.5-2.5h-30c.6-1.5 2-2.5 3.7-2.5H62c1.6 0 3 1 3.5 2.5zm-7.1-5H47.2l4.5-21.6H63l-4.5 21.5zm6.1-24.1H39.3c-.7 0-1.3-.6-1.3-1.3V15.2c0-.7.6-1.3 1.3-1.3h25.3a8.9 8.9 0 110 17.8z"/><path d="M33 20.3a1.3 1.3 0 11-2.6 0 1.3 1.3 0 012.5 0zM60.8 19h5a1.3 1.3 0 000-2.5h-5a1.3 1.3 0 100 2.5zM68.4 21.5h-7.6a1.3 1.3 0 100 2.6h7.6a1.3 1.3 0 000-2.6zM65.9 26.6h-5.1a1.3 1.3 0 100 2.5h5a1.3 1.3 0 000-2.5zM25.3 7.8c0-.4 0-.7-.2-1L20 .5A1.3 1.3 0 0018 2l4.2 5.2-2.7 2a1.3 1.3 0 00-.1 2l3.8 3.6a1.3 1.3 0 101.7-1.9l-2.7-2.5 2.6-1.9c.3-.2.5-.5.5-.8zM18.2 45.3a1.3 1.3 0 001.8-.2l5-6.3a1.3 1.3 0 00-.2-1.8L22.2 35l2.7-2.5a1.3 1.3 0 10-1.7-1.8l-3.8 3.6a1.3 1.3 0 00.1 2l2.7 1.9-4.2 5.2c-.4.6-.3 1.4.2 1.8z"/></g><defs><clipPath id="clip0"><rect width="76" height="76" fill="#fff"/></clipPath></defs></svg>
