<svg fill="none" viewBox="0 0 78 78"><defs/><g fill="#242424"><path d="M3.9 78h70.2a3.9 3.9 0 002.7-6.6L6.7 1.2A3.8 3.8 0 002.4.3C1 1 0 2.3 0 4v70.2c0 2.2 1.7 3.9 3.9 4zm-1.3-3.9v-3.9h5.2v5.2H3.9c-.7 0-1.3-.6-1.3-1.3zm.8-71.4h.5c.4 0 .7 0 1 .3L75 73.2a1.3 1.3 0 01-1 2.2h-9v-3.9a1.3 1.3 0 00-2.6 0v4h-5.2v-2.7a1.3 1.3 0 00-2.6 0v2.6h-5.2v-3.9a1.3 1.3 0 00-2.6 0v4h-5.2v-2.7a1.3 1.3 0 00-2.6 0v2.6h-5.2v-3.9a1.3 1.3 0 00-2.6 0v4H26v-2.7a1.3 1.3 0 00-2.6 0v2.6h-5.2v-3.9a1.3 1.3 0 00-2.6 0v4h-5.2v-5.3c0-1.4-1.2-2.6-2.6-2.6H2.6v-5.2h3.9a1.3 1.3 0 000-2.6H2.6v-5.2h2.6a1.3 1.3 0 100-2.6H2.6v-5.2h3.9a1.3 1.3 0 000-2.6H2.6V39h2.6a1.3 1.3 0 100-2.6H2.6v-5.2h3.9a1.3 1.3 0 000-2.6H2.6v-5.2h2.6a1.3 1.3 0 100-2.6H2.6v-5.2h3.9a1.3 1.3 0 000-2.6H2.6V4c0-.6.3-1 .8-1.3z"/><path d="M13 66.3h40.3a1.3 1.3 0 001-2.2L13.8 23.8a1.3 1.3 0 00-2.2 1V65c0 .7.6 1.3 1.3 1.3zm1.3-38.5l35.9 36H14.3v-36zM72.6 38.2L41.6 7l-.6-.3L27.3 2 25.6.4a1.3 1.3 0 00-1.8 1.8L25.4 4l4.8 13.7c0 .2.2.4.3.5l31 31 3.7 3.7a6 6 0 004.2 1.8 5 5 0 003.5-1.4l3.7-3.7a5 5 0 001.4-3.9 6 6 0 00-1.8-3.8l-3.6-3.6zm-12 6.4l3.7-3.7 3.7-3.7 1.8 1.9-7.3 7.3-1.9-1.8zM33.2 17.2l2.8-2.7 8 8a1.3 1.3 0 101.8-1.9l-8-8 2.8-2.7 25.5 25.5-2.7 2.8-13.8-13.8a1.3 1.3 0 10-1.9 1.8L61.5 40l-2.7 2.8-25.6-25.6zm5-8.6L32 14.8l-3.4-9.5 9.6 3.3zm36.5 39l-3.6 3.8A3 3 0 0167 51l-2.7-2.7 7.3-7.4 2.7 2.7c.6.6 1 1.4 1 2.2.2.7 0 1.4-.6 1.9z"/></g><defs><clipPath id="clip0"><rect width="78" height="78" fill="#fff"/></clipPath></defs></svg>
