<svg xmlns="http://www.w3.org/2000/svg" fill="none" viewBox="0 0 39 39"><defs/><path fill="#B78544" fill-rule="evenodd" d="M11.38.4c2.01-.1 2.66-.12 7.79-.12s5.77.02 7.78.11c2.01.1 3.39.41 4.6.88a9.3 9.3 0 013.34 2.18c.96.94 1.7 2.08 2.17 3.34.47 1.2.79 2.58.88 4.59.1 2.01.12 2.66.12 7.79s-.03 5.77-.12 7.78c-.09 2.01-.41 3.39-.88 4.59a9.27 9.27 0 01-2.17 3.35 9.26 9.26 0 01-3.35 2.17c-1.2.47-2.58.79-4.58.88-2.02.1-2.66.12-7.8.12a135 135 0 01-7.78-.12c-2.01-.09-3.38-.41-4.59-.88a9.27 9.27 0 01-3.34-2.17 9.26 9.26 0 01-2.18-3.35c-.47-1.2-.79-2.58-.88-4.58-.1-2.02-.11-2.66-.11-7.8 0-5.12.02-5.77.11-7.78C.5 9.37.8 8 1.27 6.8a9.27 9.27 0 012.18-3.34 9.26 9.26 0 013.34-2.18C8 .8 9.37.48 11.38.39zM26.8 3.8c-2-.1-2.59-.12-7.63-.12-5.05 0-5.64.02-7.64.11-1.84.08-2.84.4-3.5.65-.89.35-1.52.75-2.18 1.41a5.86 5.86 0 00-1.4 2.18c-.27.66-.57 1.66-.66 3.5-.09 2-.1 2.6-.1 7.64 0 5.04.01 5.64.1 7.63.09 1.84.4 2.84.65 3.5.3.83.79 1.57 1.41 2.18.61.63 1.36 1.1 2.18 1.41.66.26 1.66.57 3.5.65 2 .1 2.6.11 7.64.11 5.04 0 5.64-.02 7.63-.1 1.84-.1 2.84-.4 3.5-.66a5.87 5.87 0 002.18-1.41 5.86 5.86 0 001.41-2.17c.26-.67.57-1.67.65-3.51.1-2 .11-2.59.11-7.63 0-5.05-.02-5.64-.1-7.64-.1-1.84-.4-2.84-.66-3.5a5.87 5.87 0 00-1.41-2.18 5.86 5.86 0 00-2.17-1.4c-.67-.27-1.67-.58-3.51-.66zM16.75 24.98a6.3 6.3 0 104.85-11.63 6.3 6.3 0 00-4.85 11.63zM12.3 12.3a9.7 9.7 0 1113.73 13.73A9.7 9.7 0 0112.3 12.3zm18.73-1.4a2.3 2.3 0 10-3.15-3.34 2.3 2.3 0 003.15 3.34z" clip-rule="evenodd"/></svg>