<svg width="25" height="25" viewBox="0 0 25 25" fill="none" xmlns="http://www.w3.org/2000/svg">
<g clip-path="url(#clip0)">
<path d="M21.943 10.6841C21.943 17.6779 12.951 23.6726 12.951 23.6726C12.951 23.6726 3.95898 17.6779 3.95898 10.6841C3.95898 8.2993 4.90635 6.01215 6.59268 4.32583C8.279 2.63951 10.5661 1.69214 12.951 1.69214C15.3358 1.69214 17.6229 2.63951 19.3093 4.32583C20.9956 6.01215 21.943 8.2993 21.943 10.6841Z" stroke="#B78544" stroke-width="1.99822" stroke-linecap="round" stroke-linejoin="round"/>
<path d="M12.9505 13.6814C14.6058 13.6814 15.9478 12.3395 15.9478 10.6841C15.9478 9.02872 14.6058 7.68677 12.9505 7.68677C11.2951 7.68677 9.95312 9.02872 9.95312 10.6841C9.95312 12.3395 11.2951 13.6814 12.9505 13.6814Z" stroke="#B78544" stroke-width="1.99822" stroke-linecap="round" stroke-linejoin="round"/>
</g>
<defs>
<clipPath id="clip0">
<rect width="23.9786" height="23.9786" fill="#ffffff" transform="translate(0.960938 0.693115)"/>
</clipPath>
</defs>
</svg>
